<?xml version="1.0" standalone="no"?><!DOCTYPE svg PUBLIC "-//W3C//DTD SVG 1.1//EN" "http://www.w3.org/Graphics/SVG/1.1/DTD/svg11.dtd"><svg t="1576691025553" class="icon" viewBox="0 0 1024 1024" version="1.1" xmlns="http://www.w3.org/2000/svg" p-id="27845" xmlns:xlink="http://www.w3.org/1999/xlink" width="200" height="200"><defs><style type="text/css"></style></defs><path d="M951.7568 1002.2912c-14.0288 14.46912-30.64832 21.7088-49.84832 21.7088H122.09152c-19.2 0-35.81952-7.23968-49.84832-21.7088C58.2144 987.8016 51.2 970.65984 51.2 950.84544V73.14432C51.2 53.32992 58.2144 36.18816 72.2432 21.7088 86.272 7.23968 102.89152 0 122.09152 0h779.81696c19.2 0 35.81952 7.23968 49.84832 21.7088C965.7856 36.1984 972.8 53.34016 972.8 73.15456v877.71136c0 19.8144-7.0144 36.95616-21.0432 51.42528zM143.36 532.48c0 17.2032 13.5168 30.72 30.72 30.72h675.84c17.2032 0 30.72-13.5168 30.72-30.72V112.64c0-17.2032-13.5168-30.72-30.72-30.72H174.08c-17.2032 0-30.72 13.5168-30.72 30.72v419.84z m51.2 348.16c-28.672 0-51.2 22.528-51.2 51.2s22.528 51.2 51.2 51.2 51.2-22.528 51.2-51.2-22.528-51.2-51.2-51.2z m686.08-215.04c0-28.672-22.528-51.2-51.2-51.2s-51.2 22.528-51.2 51.2 22.528 51.2 51.2 51.2 51.2-22.528 51.2-51.2zM358.4 983.04c28.672 0 51.2-22.528 51.2-51.2s-22.528-51.2-51.2-51.2-51.2 22.528-51.2 51.2 22.528 51.2 51.2 51.2z m102.4-51.2c0 28.672 22.528 51.2 51.2 51.2s51.2-22.528 51.2-51.2-22.528-51.2-51.2-51.2-51.2 22.528-51.2 51.2z m51.2-184.32c-28.672 0-51.2 22.528-51.2 51.2s22.528 51.2 51.2 51.2 51.2-22.528 51.2-51.2-22.528-51.2-51.2-51.2z m51.2-81.92c0-28.672-22.528-51.2-51.2-51.2s-51.2 22.528-51.2 51.2 22.528 51.2 51.2 51.2 51.2-22.528 51.2-51.2zM358.4 849.92c28.672 0 51.2-22.528 51.2-51.2s-22.528-51.2-51.2-51.2-51.2 22.528-51.2 51.2 22.528 51.2 51.2 51.2z m317.44 0c28.672 0 51.2-22.528 51.2-51.2s-22.528-51.2-51.2-51.2-51.2 22.528-51.2 51.2 22.528 51.2 51.2 51.2z m0-235.52c-28.672 0-51.2 22.528-51.2 51.2s22.528 51.2 51.2 51.2 51.2-22.528 51.2-51.2-22.528-51.2-51.2-51.2zM245.76 798.72c0-28.672-22.528-51.2-51.2-51.2s-51.2 22.528-51.2 51.2 22.528 51.2 51.2 51.2 51.2-22.528 51.2-51.2z m634.88 0c0-28.672-22.528-51.2-51.2-51.2s-51.2 22.528-51.2 51.2v133.12c0 28.672 22.528 51.2 51.2 51.2s51.2-22.528 51.2-51.2V798.72zM194.56 614.4c-28.672 0-51.2 22.528-51.2 51.2s22.528 51.2 51.2 51.2 51.2-22.528 51.2-51.2-22.528-51.2-51.2-51.2z m430.08 317.44c0 28.672 22.528 51.2 51.2 51.2s51.2-22.528 51.2-51.2-22.528-51.2-51.2-51.2-51.2 22.528-51.2 51.2zM307.2 665.6c0 28.672 22.528 51.2 51.2 51.2s51.2-22.528 51.2-51.2-22.528-51.2-51.2-51.2-51.2 22.528-51.2 51.2z m481.28-194.56v51.2H512v-51.2h276.48z m-308.35712-60.54912c0 2.64192-0.98304 4.8128-2.93888 6.52288-1.9456 1.69984-4.27008 2.54976-6.95296 2.54976h-89.64096v93.5936c0 2.4576-0.9728 4.58752-2.92864 6.38976a9.94304 9.94304 0 0 1-6.9632 2.69312H317.5424c-2.68288 0-4.99712-0.84992-6.9632-2.56a8.25344 8.25344 0 0 1-2.92864-6.51264v-93.60384H218.624c-2.68288 0-4.99712-0.84992-6.9632-2.56a8.25344 8.25344 0 0 1-2.92864-6.51264v-29.21472c0-2.4576 0.9728-4.58752 2.92864-6.38976a9.94304 9.94304 0 0 1 6.9632-2.69312h89.01632v-24.10496H218.624c-2.68288 0-4.99712-0.84992-6.9632-2.56a8.25344 8.25344 0 0 1-2.92864-6.51264v-29.50144c0-2.4576 0.9728-4.58752 2.92864-6.37952a9.94304 9.94304 0 0 1 6.9632-2.70336h66.1504l-99.2256-163.9424a8.94976 8.94976 0 0 1 0-9.07264 9.8816 9.8816 0 0 1 8.6528-4.53632h59.96544c3.91168 0 6.90176 1.69984 8.96 5.10976l66.4576 120.54528c3.91168 7.17824 9.68704 18.9952 17.3056 35.45088 2.06848-4.53632 5.20192-10.96704 9.43104-19.29216 4.21888-8.31488 7.0656-14.08 8.4992-17.3056l59.0336-119.12192c1.64864-3.584 4.63872-5.38624 8.97024-5.38624h59.0336c3.50208 0 6.28736 1.51552 8.3456 4.53632 1.85344 2.65216 1.95584 5.5808 0.3072 8.79616l-96.74752 164.21888h66.4576c2.68288 0 4.99712 0.90112 6.9632 2.70336a8.38656 8.38656 0 0 1 2.92864 6.37952v29.4912c0 2.6624-0.98304 4.82304-2.93888 6.53312-1.9456 1.69984-4.27008 2.54976-6.95296 2.54976h-89.64096v24.10496h89.64096c2.68288 0 4.99712 0.90112 6.9632 2.69312a8.38656 8.38656 0 0 1 2.92864 6.38976v29.21472z" p-id="27846"></path></svg>