<?xml version="1.0" standalone="no"?><!DOCTYPE svg PUBLIC "-//W3C//DTD SVG 1.1//EN" "http://www.w3.org/Graphics/SVG/1.1/DTD/svg11.dtd"><svg t="1578321236689" class="icon" viewBox="0 0 1024 1024" version="1.1" xmlns="http://www.w3.org/2000/svg" p-id="1251" xmlns:xlink="http://www.w3.org/1999/xlink" width="200" height="200"><defs><style type="text/css"></style></defs><path d="M921.6 477.866667h-5.870933c-16.315733 0-30.856533-11.502933-33.450667-27.613867a371.575467 371.575467 0 0 0-4.5056-23.210667c-3.618133-15.837867 5.393067-31.8464 20.3776-38.058666l5.3248-2.218667a34.133333 34.133333 0 1 0-26.146133-63.0784l-5.461334 2.2528a33.655467 33.655467 0 0 1-41.437866-12.629333c-4.164267-6.690133-8.533333-13.243733-13.1072-19.6608-9.454933-13.243733-7.2704-31.5392 4.232533-43.042134l4.164267-4.164266a34.0992 34.0992 0 1 0-48.264534-48.264534l-4.130133 4.232534c-11.502933 11.502933-29.7984 13.687467-43.042133 4.232533-6.417067-4.573867-12.970667-8.942933-19.6608-13.1072-13.824-8.6016-18.875733-26.385067-12.629334-41.437867l2.2528-5.461333a34.167467 34.167467 0 0 0-63.0784-26.146133l-2.218666 5.3248c-6.212267 14.984533-22.2208 23.995733-38.058667 20.3776a371.575467 371.575467 0 0 0-23.210667-4.5056c-16.042667-2.56-27.5456-17.1008-27.5456-33.416534V102.4a34.133333 34.133333 0 0 0-68.266666 0v5.870933c0 16.315733-11.502933 30.856533-27.613867 33.450667-7.816533 1.262933-15.5648 2.7648-23.210667 4.5056-15.837867 3.618133-31.8464-5.393067-38.058666-20.3776l-2.218667-5.3248a34.133333 34.133333 0 1 0-63.0784 26.146133l2.2528 5.461334c6.280533 15.018667 1.262933 32.802133-12.5952 41.403733-6.690133 4.164267-13.243733 8.533333-19.626667 13.073067-13.243733 9.454933-31.5392 7.304533-43.042133-4.1984l-4.164267-4.164267a34.133333 34.133333 0 0 0-48.264533 48.264533l4.164267 4.164267c11.502933 11.502933 13.653333 29.764267 4.1984 43.042133-4.539733 6.382933-8.9088 12.936533-13.073067 19.626667-8.6016 13.858133-26.385067 18.875733-41.437867 12.629333l-5.461333-2.2528a34.167467 34.167467 0 0 0-26.146133 63.0784l5.3248 2.218667c14.984533 6.212267 23.995733 22.2208 20.3776 38.058667-1.7408 7.645867-3.242667 15.394133-4.5056 23.210666-2.56 16.0768-17.1008 27.579733-33.416534 27.579734H102.4a34.133333 34.133333 0 0 0 0 68.266666h5.870933c16.315733 0 30.856533 11.502933 33.450667 27.613867 1.262933 7.816533 2.7648 15.5648 4.5056 23.210667 3.618133 15.837867-5.393067 31.8464-20.3776 38.058666l-5.3248 2.218667a34.133333 34.133333 0 1 0 26.146133 63.0784l5.461334-2.2528a33.655467 33.655467 0 0 1 41.437866 12.629333c4.164267 6.690133 8.533333 13.243733 13.1072 19.6608 9.454933 13.243733 7.2704 31.5392-4.232533 43.042134l-4.164267 4.164266a34.0992 34.0992 0 1 0 48.264534 48.264534l4.164266-4.164267c11.502933-11.502933 29.7984-13.687467 43.042134-4.232533 6.417067 4.573867 12.970667 8.942933 19.6608 13.1072 13.824 8.6016 18.875733 26.385067 12.629333 41.437866l-2.2528 5.461334a34.167467 34.167467 0 0 0 63.0784 26.146133l2.218667-5.3248c6.212267-14.984533 22.2208-23.995733 38.058666-20.3776 7.645867 1.7408 15.394133 3.242667 23.210667 4.5056 16.008533 2.491733 27.511467 17.032533 27.511467 33.348267V921.6a34.133333 34.133333 0 0 0 68.266666 0v-5.870933c0-16.315733 11.502933-30.856533 27.613867-33.450667 7.816533-1.262933 15.5648-2.7648 23.210667-4.5056 15.837867-3.618133 31.8464 5.393067 38.058666 20.3776l2.218667 5.3248a34.133333 34.133333 0 1 0 63.0784-26.146133l-2.2528-5.461334a33.655467 33.655467 0 0 1 12.629333-41.437866c6.690133-4.164267 13.243733-8.533333 19.6608-13.1072 13.243733-9.454933 31.5392-7.2704 43.042134 4.232533l4.164266 4.164267a34.0992 34.0992 0 1 0 48.264534-48.264534l-4.164267-4.164266c-11.502933-11.502933-13.687467-29.7984-4.232533-43.042134 4.573867-6.417067 8.942933-12.970667 13.1072-19.6608 8.6016-13.824 26.385067-18.875733 41.437866-12.629333l5.461334 2.2528a34.167467 34.167467 0 0 0 26.146133-63.0784l-5.3248-2.218667c-14.984533-6.212267-23.995733-22.2208-20.3776-38.058666 1.7408-7.645867 3.242667-15.394133 4.5056-23.210667 2.491733-16.008533 17.032533-27.511467 33.348267-27.511467H921.6a34.133333 34.133333 0 0 0 0-68.266666z m-409.6 307.2a273.066667 273.066667 0 1 1 0-546.133334 273.066667 273.066667 0 0 1 0 546.133334z" p-id="1252"></path><path d="M648.533333 512h-238.933333v-102.4l51.4048-29.354667 203.502933 101.717334zM648.533333 512h-238.933333v102.4l51.4048 29.354667 203.502933-101.717334z" p-id="1253"></path><path d="M648.533333 512m-34.133333 0a34.133333 34.133333 0 1 0 68.266667 0 34.133333 34.133333 0 1 0-68.266667 0Z" p-id="1254"></path><path d="M443.733333 409.6m-34.133333 0a34.133333 34.133333 0 1 0 68.266667 0 34.133333 34.133333 0 1 0-68.266667 0Z" p-id="1255"></path><path d="M443.733333 614.4m-34.133333 0a34.133333 34.133333 0 1 0 68.266667 0 34.133333 34.133333 0 1 0-68.266667 0Z" p-id="1256"></path></svg>