<?xml version="1.0" standalone="no"?><!DOCTYPE svg PUBLIC "-//W3C//DTD SVG 1.1//EN" "http://www.w3.org/Graphics/SVG/1.1/DTD/svg11.dtd"><svg t="1576692530895" class="icon" viewBox="0 0 1153 1024" version="1.1" xmlns="http://www.w3.org/2000/svg" p-id="49372" xmlns:xlink="http://www.w3.org/1999/xlink" width="225.1953125" height="200"><defs><style type="text/css"></style></defs><path d="M96 96v256h256v-256h-256zM64 0h320a64 64 0 0 1 64 64v320a64 64 0 0 1-64 64H64a64 64 0 0 1-64-64V64a64 64 0 0 1 64-64z m32 672v256h256v-256h-256zM64 576h320a64 64 0 0 1 64 64v320a64 64 0 0 1-64 64H64a64 64 0 0 1-64-64v-320a64 64 0 0 1 64-64z m512.192-477.824a48 48 0 0 1 0-96h528.64a48 48 0 1 1 0 96h-528.64z m-0.768 616.64a48 48 0 1 1 0-96h528.64a48 48 0 1 1 0 96H575.36zM575.36 406.528a48 48 0 0 1 0-96h528.64a48 48 0 1 1 0 96h-528.64z m1.28 616.576a48 48 0 0 1 0-96h528.576a48 48 0 0 1 0 96h-528.64z" p-id="49373"></path></svg>