<?xml version="1.0" standalone="no"?><!DOCTYPE svg PUBLIC "-//W3C//DTD SVG 1.1//EN" "http://www.w3.org/Graphics/SVG/1.1/DTD/svg11.dtd"><svg t="1576691056025" class="icon" viewBox="0 0 1024 1024" version="1.1" xmlns="http://www.w3.org/2000/svg" p-id="27990" xmlns:xlink="http://www.w3.org/1999/xlink" width="200" height="200"><defs><style type="text/css"></style></defs><path d="M361.652706 261.300706c-18.070588 0-30.057412-11.685647-30.057412-29.153882V144.564706h66.138353C412.792471 95.051294 457.908706 57.223529 512 57.223529s96.195765 37.948235 114.266353 87.461647h66.138353v87.521883c0 17.468235-12.047059 29.153882-30.117647 29.153882h-300.574118z" p-id="27991"></path><path d="M872.809412 144.624941h-120.289883v145.829647c0 17.468235-12.047059 29.153882-30.057411 29.153883H301.537882c-18.070588 0-30.117647-11.625412-30.117647-29.153883v-145.769412H181.308235c-33.069176 0-90.172235 26.202353-90.172235 58.307765V844.498824c0 96.256 81.136941 174.983529 180.404706 174.983529h481.039059c99.267765 0 180.404706-78.727529 180.404706-174.983529V202.992941c0-32.105412-27.045647-58.368-60.114824-58.368z m-150.347294 641.626353H301.537882c-18.070588 0-30.117647-11.685647-30.117647-29.153882s12.047059-29.153882 30.117647-29.153883h420.924236c18.070588 0 30.117647 11.625412 30.117647 29.153883 0 17.468235-12.047059 29.153882-30.117647 29.153882z m0-174.983529H301.537882c-18.070588 0-30.117647-11.685647-30.117647-29.153883s12.047059-29.153882 30.117647-29.153882h420.924236c18.070588 0 30.117647 11.625412 30.117647 29.153882 0 17.468235-12.047059 29.153882-30.117647 29.153883z" p-id="27992"></path></svg>