<?xml version="1.0" standalone="no"?><!DOCTYPE svg PUBLIC "-//W3C//DTD SVG 1.1//EN" "http://www.w3.org/Graphics/SVG/1.1/DTD/svg11.dtd"><svg t="1576691288721" class="icon" viewBox="0 0 1024 1024" version="1.1" xmlns="http://www.w3.org/2000/svg" p-id="35188" xmlns:xlink="http://www.w3.org/1999/xlink" width="200" height="200"><defs><style type="text/css"></style></defs><path d="M910.506667 56.888889 113.493333 56.888889 56.576 56.888889l0 56.888889 0 796.444444 0 56.888889L113.493333 967.111111l797.013333 0 56.945778 0 0-56.888889L967.452444 113.777778 967.452444 56.888889 910.506667 56.888889zM910.506667 910.222222 113.493333 910.222222 113.493333 113.777778l797.013333 0L910.506667 910.222222z" p-id="35189"></path><path d="M284.302222 284.444444l55.239111 0 0 56.888889-55.239111 0 0-56.888889Z" p-id="35190"></path><path d="M396.430222 284.444444l343.296 0 0 56.888889-343.296 0 0-56.888889Z" p-id="35191"></path><path d="M284.302222 483.555556l55.239111 0 0 56.888889-55.239111 0 0-56.888889Z" p-id="35192"></path><path d="M396.430222 483.555556l343.296 0 0 56.888889-343.296 0 0-56.888889Z" p-id="35193"></path><path d="M284.302222 682.666667l55.239111 0 0 56.888889-55.239111 0 0-56.888889Z" p-id="35194"></path><path d="M396.430222 682.666667l343.296 0 0 56.888889-343.296 0 0-56.888889Z" p-id="35195"></path></svg>