<?xml version="1.0" standalone="no"?><!DOCTYPE svg PUBLIC "-//W3C//DTD SVG 1.1//EN" "http://www.w3.org/Graphics/SVG/1.1/DTD/svg11.dtd"><svg t="1576692925341" class="icon" viewBox="0 0 1028 1024" version="1.1" xmlns="http://www.w3.org/2000/svg" p-id="52328" xmlns:xlink="http://www.w3.org/1999/xlink" width="200.78125" height="200"><defs><style type="text/css"></style></defs><path d="M1027.036513 194.91696L965.204798 599.724391h-0.401123c-5.001623 34.311029-34.243087 60.740714-69.79015 61.377023v0.215587l-519.714102 34.725218c-1.600572 0.2182-3.220742 0.369765-4.881417 0.369765-0.125433 0-0.246945-0.016986-0.372377-0.018292L369.764712 696.411984l-0.006533-0.033971C350.222059 696.02262 334.486807 680.101832 334.486807 660.480784c0-19.580544 15.669923-35.471281 35.149859-35.892002L369.764712 624.549584l452.218323-30.98968c-0.00392-0.06141-0.002613-0.122819-0.006533-0.184229L884.560813 589.271679l13.06589-75.782167-0.194681 0.011759 39.0644-229.966213L936.824376 283.529832l16.985658-101.913949H267.850763l0.001307-0.099301C248.92482 180.493523 233.879447 164.868024 233.879447 145.684683c0-19.623662 15.737866-35.545756 35.277905-35.898535V109.753483h687.26586c39.68895 0 71.8624 32.17345 71.8624 71.8624 0 4.54693-0.441627 8.988026-1.249099 13.301077zM910.0393 769.580973c19.844475 0 35.9312 16.086725 35.9312 35.9312S929.883775 841.443373 910.0393 841.443373h-603.644159c-0.180309 0-0.354086-0.024825-0.534395-0.027439-18.287021 2.146726-35.424243-9.71841-39.13365-27.731047L113.954167 71.8624H35.9312C16.086725 71.8624 0 55.775675 0 35.9312S16.086725 0 35.9312 0h107.140305c16.517899 0 30.396489 11.160884 34.597173 26.342143a34.507018 34.507018 0 0 1 1.1106 4.032134L331.013893 769.580973H910.0393zM327.953861 880.263441c39.68895 0 71.8624 32.174756 71.8624 71.8624 0 39.68895-32.17345 71.8624-71.8624 71.8624s-71.8624-32.17345-71.8624-71.8624c0-39.687644 32.17345-71.8624 71.8624-71.8624z m509.947349 0.010453c39.687644 0 71.8624 32.17345 71.862399 71.8624 0 39.687644-32.174756 71.8624-71.862399 71.862399-39.68895 0-71.8624-32.174756-71.8624-71.862399 0-39.68895 32.17345-71.8624 71.8624-71.8624z" p-id="52329"></path></svg>