<?xml version="1.0" standalone="no"?><!DOCTYPE svg PUBLIC "-//W3C//DTD SVG 1.1//EN" "http://www.w3.org/Graphics/SVG/1.1/DTD/svg11.dtd"><svg t="1576691166942" class="icon" viewBox="0 0 1024 1024" version="1.1" xmlns="http://www.w3.org/2000/svg" p-id="31140" xmlns:xlink="http://www.w3.org/1999/xlink" width="200" height="200"><defs><style type="text/css"></style></defs><path d="M515.413333 421.546667c81.92 0 146.773333-66.56 146.773334-148.48 0-81.92-66.56-148.48-148.48-146.773334-81.92 0-146.773333 66.56-146.773334 148.48s66.56 146.773333 148.48 146.773334zM512 464.213333c-162.133333 0-295.253333 184.32-295.253333 409.6 0 13.653333 10.24 22.186667 22.186666 22.186667h546.133334c13.653333 0 22.186667-10.24 22.186666-22.186667 0-225.28-131.413333-409.6-295.253333-409.6zM829.44 551.253333c54.613333 0 98.986667-46.08 98.986667-98.986666s-46.08-98.986667-98.986667-98.986667-98.986667 44.373333-98.986667 98.986667c-1.706667 54.613333 44.373333 98.986667 98.986667 98.986666zM827.733333 580.266667c-8.533333 0-17.066667 1.706667-25.6 3.413333 42.666667 71.68 68.266667 162.133333 68.266667 264.533333 0 11.946667 8.533333 22.186667 20.48 22.186667h119.466667c8.533333 0 13.653333-6.826667 13.653333-13.653333 0-153.6-88.746667-276.48-196.266667-276.48zM194.56 551.253333c54.613333 0 98.986667-44.373333 98.986667-98.986666 0-54.613333-44.373333-98.986667-98.986667-98.986667s-98.986667 44.373333-98.986667 98.986667 46.08 98.986667 98.986667 98.986666zM196.266667 580.266667C88.746667 580.266667 0 703.146667 0 855.04c0 6.826667 5.12 13.653333 13.653333 13.653333h119.466667c11.946667 0 20.48-10.24 20.48-22.186666 0-100.693333 25.6-192.853333 68.266667-264.533334-8.533333 0-17.066667-1.706667-25.6-1.706666z" p-id="31141"></path></svg>