<?xml version="1.0" standalone="no"?><!DOCTYPE svg PUBLIC "-//W3C//DTD SVG 1.1//EN" "http://www.w3.org/Graphics/SVG/1.1/DTD/svg11.dtd"><svg t="1576690360982" class="icon" viewBox="0 0 1024 1024" version="1.1" xmlns="http://www.w3.org/2000/svg" p-id="6933" xmlns:xlink="http://www.w3.org/1999/xlink" width="200" height="200"><defs><style type="text/css"></style></defs><path d="M995.470222 664.462222a28.586667 28.586667 0 1 1-57.173333 0 169.329778 169.329778 0 0 0-168.419556-169.813333h-18.005333a28.871111 28.871111 0 0 1 0-57.742222h9.016889a68.266667 68.266667 0 0 0 0-136.248889 28.871111 28.871111 0 0 1 0-57.742222 125.582222 125.582222 0 0 1 91.904 210.204444 227.555556 227.555556 0 0 1 142.677333 211.342222z m-170.154666 7.111111v142.222223a28.245333 28.245333 0 0 1-28.444445 28.444444h-568.888889a28.245333 28.245333 0 0 1-28.444444-28.444444v-142.222223a232.419556 232.419556 0 0 1 195.498666-224.711111 157.724444 157.724444 0 1 1 234.012445 0 232.931556 232.931556 0 0 1 196.266667 224.711111z m-568.888889 0v113.777778h512v-113.777778a178.944 178.944 0 0 0-184.661334-171.235555H440.32a178.261333 178.261333 0 0 0-183.893333 171.235555z m255.630222-432.071111a101.546667 101.546667 0 1 0 100.522667 101.546667 101.148444 101.148444 0 0 0-100.522667-101.546667z m-239.815111 255.146667h-18.033778a169.329778 169.329778 0 0 0-168.419556 169.813333 28.586667 28.586667 0 1 1-57.173333 0 227.555556 227.555556 0 0 1 142.677333-211.342222 125.610667 125.610667 0 0 1 91.932445-210.204444 28.871111 28.871111 0 0 1 0 57.742222 68.266667 68.266667 0 0 0 0 136.248889h9.016889a28.871111 28.871111 0 0 1 0 57.742222z" p-id="6934"></path></svg>