<?xml version="1.0" standalone="no"?><!DOCTYPE svg PUBLIC "-//W3C//DTD SVG 1.1//EN" "http://www.w3.org/Graphics/SVG/1.1/DTD/svg11.dtd"><svg t="1576691882489" class="icon" viewBox="0 0 1024 1024" version="1.1" xmlns="http://www.w3.org/2000/svg" p-id="44209" xmlns:xlink="http://www.w3.org/1999/xlink" width="200" height="200"><defs><style type="text/css"></style></defs><path d="M512 960C264.576 960 64 759.424 64 512 64 264.576 264.576 64 512 64 759.424 64 960 264.576 960 512 960 759.424 759.424 960 512 960ZM512 128C299.936 128 128 299.936 128 512 128 724.064 299.936 896 512 896 724.064 896 896 724.064 896 512 896 299.936 724.064 128 512 128ZM560 352C533.504 352 512 330.496 512 304 512 277.504 533.504 256 560 256 586.496 256 608 277.504 608 304 608 330.496 586.496 352 560 352ZM565.728 416C569.152 416 572.576 416 576 416 557.408 490.048 538.848 564.128 520.256 638.208 519.2 661.568 493.184 700.128 508.512 717.344 528.192 709.152 543.84 682.752 556.928 661.792 558.4 662.336 559.872 662.912 561.344 663.456 564.96 668.256 566.592 669.28 567.2 676.928 529.44 728.48 520.704 778.336 439.552 766.144 435.744 757.824 431.904 760.064 426.368 754.368 425.152 753.152 419.584 728.64 417.568 732.48 410.56 704.128 428.704 674.624 433.696 653.376 445.568 602.688 474.816 523.52 474.784 468.192 471.84 464.256 468.896 460.32 465.984 456.384 457.664 455.84 449.344 455.264 441.024 454.72 441.024 454.144 441.024 453.6 441.024 453.024 452.48 418.176 482.528 411.84 565.728 416Z" p-id="44210"></path></svg>