<?xml version="1.0" standalone="no"?><!DOCTYPE svg PUBLIC "-//W3C//DTD SVG 1.1//EN" "http://www.w3.org/Graphics/SVG/1.1/DTD/svg11.dtd"><svg t="1576690536224" class="icon" viewBox="0 0 1024 1024" version="1.1" xmlns="http://www.w3.org/2000/svg" p-id="12592" xmlns:xlink="http://www.w3.org/1999/xlink" width="200" height="200"><defs><style type="text/css"></style></defs><path d="M854.485333 367.146667a14.549333 14.549333 0 0 0-14.506666 14.549333v485.205333h-42.922667v-424.661333a14.549333 14.549333 0 0 0-14.549333-14.549333H240.981333a14.549333 14.549333 0 0 0-14.549333 14.549333v424.661333H183.466667l0.256-35.584V381.696a14.549333 14.549333 0 0 0-14.506667-14.549333h-17.92L511.744 157.866667a101821.44 101821.44 0 0 1 360.789333 209.450666zM768 865.450667H255.530667v-408.661334H768v408.661334z m141.226667-502.016a27.776 27.776 0 0 0-12.544-15.872c-73.173333-43.050667-283.776-164.949333-371.2-215.594667a25.344 25.344 0 0 0-27.221334 0l-371.2 215.68a27.52 27.52 0 0 0-10.837333 34.645333 18.944 18.944 0 0 0 1.024 2.090667 27.306667 27.306667 0 0 0 31.616 11.861333h5.589333v434.944l-0.384 50.176a14.549333 14.549333 0 0 0 14.549334 14.634667h685.909333a14.549333 14.549333 0 0 0 14.549333-14.549333V396.245333h4.992a25.941333 25.941333 0 0 0 16.682667 0.554667 27.605333 27.605333 0 0 0 15.786667-12.416 25.856 25.856 0 0 0 2.645333-20.949333z" p-id="12593"></path><path d="M565.674667 300.16a53.930667 53.930667 0 1 1-53.930667-53.930667 53.674667 53.674667 0 0 1 53.930667 53.930667z m-131.84 1.237333a77.909333 77.909333 0 1 0 77.909333-77.909333 77.738667 77.738667 0 0 0-77.909333 77.909333zM386.261333 618.026667a7.765333 7.765333 0 0 0-5.589333 5.546666v206.549334a5.632 5.632 0 0 0 5.589333 5.546666h251.477334c4.266667 0 5.589333-1.493333 5.589333-5.546666v-206.549334a5.632 5.632 0 0 0-5.589333-5.546666h-89.386667v58.709333a35.328 35.328 0 1 1-70.656 0v-58.709333z m251.477334 247.466666H386.261333a35.413333 35.413333 0 0 1-35.370666-35.328v-206.592a36.736 36.736 0 0 1 35.370666-35.328h121.216v88.490667a5.546667 5.546667 0 1 0 11.093334 0v-88.490667h119.168a35.413333 35.413333 0 0 1 35.370666 35.328v206.549334a34.133333 34.133333 0 0 1-35.370666 35.328z" p-id="12594"></path></svg>