<?xml version="1.0" standalone="no"?><!DOCTYPE svg PUBLIC "-//W3C//DTD SVG 1.1//EN" "http://www.w3.org/Graphics/SVG/1.1/DTD/svg11.dtd"><svg t="1576691098338" class="icon" viewBox="0 0 1024 1024" version="1.1" xmlns="http://www.w3.org/2000/svg" p-id="28797" xmlns:xlink="http://www.w3.org/1999/xlink" width="200" height="200"><defs><style type="text/css"></style></defs><path d="M822.99 62l-92.08 0.46c-12.56 1.21-22.47 11.35-22.73 24.17l-0.09 0.09c0 23.57-16.81 42.36-38.86 47.36-3.53 0.8-6.87 2.15-10.64 2.15s-7.11-1.35-10.64-2.15c-22.05-4.99-38.86-23.79-38.86-47.36l-0.14-0.14C608.63 72.97 597.6 62 583.92 62H427.79c-15.24 0-27.61 10.33-31.73 24.24l-0.68 2.02c0 27.46-22.26 49.73-49.73 49.73-27.46 0-49.73-22.26-49.73-49.73l-0.69-2.23C291.05 72.23 278.72 62 263.55 62H201.01C131.36 62 74.9 118.47 74.9 188.11v647.78C74.9 905.53 131.36 962 201.01 962H823c69.64 0 126.11-56.47 126.11-126.11V188.11C949.1 118.47 892.64 62 822.99 62z m53.69 355.82V826.88c0 34.79-28.25 63.05-63.05 63.05H210.37c-34.83 0-63.05-28.27-63.05-63.05V197.51c0-34.8 28.22-63.05 63.05-63.05h31.27c18.05 39.55 57.71 67.16 104.01 67.16s85.96-27.62 104.01-67.16h104.91c18.05 39.55 57.71 67.16 104.01 67.16s85.96-27.62 104.01-67.16h51.03c34.8 0 63.05 28.25 63.05 63.05v220.31z m-275.43 97.19c-17.71 0-32.62-14.9-32.62-32.59 0-17.69 14.91-32.59 32.62-32.59h199.42c17.71 0 32.62 14.9 32.62 32.59 0 17.7-13.98 32.6-32.62 32.6H601.25z m0 139.68c-17.71 0-32.62-14.9-32.62-32.59 0-17.69 14.91-32.59 32.62-32.59h134.2c17.71 0 32.62 14.9 32.62 32.59s-13.98 32.59-32.62 32.59h-134.2z m-107.72-27.02c0 26.44-3.89 59.88-34.24 84.1-20.83 16.61-44.75 26.03-74.74 29.31v39.11h-48.74v-38.92c-31.01-3.07-53.67-12.32-74.66-30.3-25.04-21.43-37.74-48.74-37.74-81.17v-23.34h69.07v21.21c0 18.72 6.27 32.62 19.16 42.45 9.93 7.55 21.32 12.37 33.85 14.31 9.69 1.53 20.44 1.18 29.64 0.03 16.12-1.92 28.41-6.9 36.59-14.78 10.84-10.54 16.12-22.88 16.12-37.74 0-11.66-6.32-22.44-19.32-32.95-8.76-7.03-20.83-14.09-35.88-20.99-8.1-3.67-16.75-7.28-26.49-10.7l-2.71-0.96c-37.93-12.64-63.63-26.25-82.79-43.43-19.24-17.24-28.98-38.04-28.98-61.77 0-35.19 11.47-60.4 36.07-79.28 19.35-14.83 42.2-24.06 68.06-27.53V315h48.74v39.33c33.06 3.86 58.05 15.3 74.27 34.04 20.39 23.62 30.73 49.53 30.73 77.04v8.4h-75.12l0.96-9.28c1.4-13.3-2.79-25.15-12.81-36.21-6.98-7.66-16.15-12.53-28.05-14.89-10.62-2.08-20.44-1.89-29.2-0.66-11.66 1.59-21.26 5.34-28.57 11.14-9.61 7.69-14.29 17.76-14.29 30.82 0 10.59 3.69 19.49 11.3 27.18 3.34 3.39 11.88 9.33 33.63 18.31 9.06 3.75 19.27 7.61 31.42 11.74 1.75 0.57 2.55 0.85 3.48 1.26 38.4 17.3 58.21 29.23 78.49 47.35 21.75 19.4 32.75 41.98 32.75 67.1z" p-id="28798"></path></svg>