<?xml version="1.0" standalone="no"?><!DOCTYPE svg PUBLIC "-//W3C//DTD SVG 1.1//EN" "http://www.w3.org/Graphics/SVG/1.1/DTD/svg11.dtd"><svg t="1576692202343" class="icon" viewBox="0 0 1024 1024" version="1.1" xmlns="http://www.w3.org/2000/svg" p-id="47107" xmlns:xlink="http://www.w3.org/1999/xlink" width="200" height="200"><defs><style type="text/css"></style></defs><path d="M911.1 869.88H686.65V390l130.4-128.8 94 92.9z m-176.45-48H863.1V374.19l-46-45.49-82.4 81.39zM623.73 869.88H399.27V452.19L511.5 563l112.23-110.81z m-176.45-48h128.45V567.07l-64.23 63.44-64.23-63.44zM336.35 869.88H111.9V514.13l175-172.9L336.35 390z m-176.45-48h128.45V410.1l-1.41-1.39-127 125.49z" fill="" p-id="47108"></path><path d="M903.95 63l-179.83 52.15 48.48 46.25-261.1 257.9-224.56-221.81-175.59 173.44v68.12l175.59-173.44L511.5 487.42l296.19-292.56 49.77 47.48L903.95 63zM63.5 911.18h896v48h-896z" fill="" p-id="47109"></path></svg>