<?xml version="1.0" standalone="no"?><!DOCTYPE svg PUBLIC "-//W3C//DTD SVG 1.1//EN" "http://www.w3.org/Graphics/SVG/1.1/DTD/svg11.dtd"><svg t="1576690970469" class="icon" viewBox="0 0 1025 1024" version="1.1" xmlns="http://www.w3.org/2000/svg" p-id="27027" xmlns:xlink="http://www.w3.org/1999/xlink" width="200.1953125" height="200"><defs><style type="text/css"></style></defs><path d="M799.500312 960.007995l-735.540287 0 0-799.500312 449.319176 0 64.663585-62.297064-1.662961-1.662961-512.3198 0c-35.337914 0-63.960025 28.654091-63.960025 63.960025l0 799.500312c0 35.337914 28.622111 63.960025 63.960025 63.960025l735.540287 0c35.337914 0 63.960025-28.622111 63.960025-63.960025l0-468.379263-63.960025 61.049844 0 407.297439zM974.271081 41.733916c-28.845971-27.662711-60.698064-41.701936-94.692817-41.701936-53.182761 0-91.974516 34.346533-102.52792 44.867958-14.966646 14.774766-438.893691 438.094191-438.893691 438.094191-3.325921 3.389881-5.756402 7.515303-7.003623 12.152405-11.480824 42.405497-69.044847 230.83173-69.588507 232.718551-2.974141 9.657964-0.3198 20.179388 6.811743 27.214991 5.084822 5.116802 11.928545 7.835103 18.900187 7.835103 2.750281 0 5.500562-0.38376 8.218863-1.24722 1.950781-0.6396 196.389257-63.512305 228.369269-73.074329 4.221362-1.24722 8.058963-3.517801 11.224984-6.619863 20.179388-19.923548 409.85584-403.523798 441.388132-436.11143 32.619613-33.642973 48.801499-68.629107 48.193879-104.030981-0.60762-34.986134-17.589007-68.661087-50.36852-100.065459zM930.490443 201.314179c-17.780887 18.356527-157.149781 156.062461-414.205122 409.2802l-19.667708 19.411868c-29.453592 9.114304-100.033479 31.788132-153.37614 48.993379 17.173267-56.700562 37.768395-125.233729 46.978638-157.629482 54.909681-54.845721 418.138663-417.499063 431.922049-431.090568 2.686321-2.686321 27.214991-26.25559 57.404122-26.25559 17.141287 0 33.674953 7.803123 50.43248 23.921049 20.051468 19.251968 30.381012 37.704435 30.668832 55.005621 0.3198 17.780887-9.849844 37.448595-30.157152 58.427483z" p-id="27028"></path></svg>