<svg height="512pt" viewBox="0 0 512 512" width="512pt" xmlns="http://www.w3.org/2000/svg"><path d="m475.734375 512h-439.46875c-20 0-36.265625-16.273438-36.265625-36.265625v-364.800781c0-4.710938 3.824219-8.535156 8.535156-8.535156h494.929688c4.710937 0 8.535156 3.824218 8.535156 8.535156v364.800781c0 19.992187-16.273438 36.265625-36.265625 36.265625zm-458.667969-392.535156v356.269531c0 10.589844 8.609375 19.199219 19.199219 19.199219h439.46875c10.589844 0 19.199219-8.609375 19.199219-19.199219v-356.269531zm0 0"/><path d="m503.464844 119.464844h-494.929688c-4.710937 0-8.535156-3.820313-8.535156-8.53125v-40.535156c0-19.992188 16.265625-36.265626 36.265625-36.265626h439.46875c19.992187 0 36.265625 16.273438 36.265625 36.265626v40.535156c0 4.710937-3.824219 8.53125-8.535156 8.53125zm-486.398438-17.066406h477.867188v-32c0-10.589844-8.609375-19.199219-19.199219-19.199219h-439.46875c-10.589844 0-19.199219 8.609375-19.199219 19.199219zm0 0"/><path d="m93.867188 85.332031c-4.710938 0-8.535157-3.820312-8.535157-8.53125 0-4.710937 3.824219-8.535156 8.535157-8.535156 14.113281 0 25.597656-11.484375 25.597656-25.597656 0-14.117188-11.484375-25.601563-25.597656-25.601563-14.113282 0-25.601563 11.484375-25.601563 25.601563 0 4.710937-3.820313 8.53125-8.53125 8.53125s-8.535156-3.820313-8.535156-8.53125c0-23.527344 19.140625-42.667969 42.667969-42.667969 23.527343 0 42.667968 19.140625 42.667968 42.667969 0 23.523437-19.140625 42.664062-42.667968 42.664062zm0 0"/><path d="m204.800781 85.332031c-4.710937 0-8.535156-3.820312-8.535156-8.53125 0-4.710937 3.824219-8.535156 8.535156-8.535156 14.113281 0 25.597657-11.484375 25.597657-25.597656 0-14.117188-11.484376-25.601563-25.597657-25.601563s-25.601562 11.484375-25.601562 25.601563c0 4.710937-3.820313 8.53125-8.53125 8.53125-4.710938 0-8.535157-3.820313-8.535157-8.53125 0-23.527344 19.140626-42.667969 42.667969-42.667969 23.527344 0 42.664063 19.140625 42.664063 42.667969 0 23.523437-19.136719 42.664062-42.664063 42.664062zm0 0"/><path d="m315.734375 85.332031c-4.710937 0-8.535156-3.820312-8.535156-8.53125 0-4.710937 3.824219-8.535156 8.535156-8.535156 14.113281 0 25.597656-11.484375 25.597656-25.597656 0-14.117188-11.484375-25.601563-25.597656-25.601563s-25.601563 11.484375-25.601563 25.601563c0 4.710937-3.824218 8.53125-8.53125 8.53125-4.710937 0-8.535156-3.820313-8.535156-8.53125 0-23.527344 19.140625-42.667969 42.667969-42.667969 23.523437 0 42.664063 19.140625 42.664063 42.667969 0 23.523437-19.140626 42.664062-42.664063 42.664062zm0 0"/><path d="m418.132812 85.332031c-4.710937 0-8.53125-3.820312-8.53125-8.53125 0-4.710937 3.820313-8.535156 8.53125-8.535156 14.113282 0 25.601563-11.484375 25.601563-25.597656 0-14.117188-11.488281-25.601563-25.601563-25.601563-14.113281 0-25.597656 11.484375-25.597656 25.601563 0 4.710937-3.824218 8.53125-8.535156 8.53125s-8.535156-3.820313-8.535156-8.53125c0-23.527344 19.140625-42.667969 42.667968-42.667969 23.527344 0 42.667969 19.140625 42.667969 42.667969 0 23.523437-19.140625 42.664062-42.667969 42.664062zm0 0"/><path d="m119.464844 179.199219h-76.796875c-4.710938 0-8.535157-3.820313-8.535157-8.53125 0-4.710938 3.824219-8.535157 8.535157-8.535157h76.796875c4.710937 0 8.535156 3.824219 8.535156 8.535157 0 4.710937-3.824219 8.53125-8.535156 8.53125zm0 0"/><path d="m42.667969 179.199219c-2.1875 0-4.371094-.835938-6.035157-2.5-3.335937-3.335938-3.335937-8.730469 0-12.066407l25.601563-25.597656c3.328125-3.339844 8.738281-3.339844 12.066406 0 3.335938 3.335938 3.335938 8.726563 0 12.066406l-25.601562 25.597657c-1.664063 1.664062-3.847657 2.5-6.03125 2.5zm0 0"/><path d="m68.265625 204.800781c-2.183594 0-4.367187-.835937-6.03125-2.5l-25.601563-25.601562c-3.335937-3.335938-3.335937-8.730469 0-12.066407 3.328126-3.335937 8.738282-3.335937 12.066407 0l25.601562 25.601563c3.335938 3.335937 3.335938 8.730469 0 12.066406-1.664062 1.664063-3.847656 2.5-6.035156 2.5zm0 0"/><path d="m469.332031 452.265625h-76.796875c-4.710937 0-8.535156-3.820313-8.535156-8.53125s3.824219-8.535156 8.535156-8.535156h76.796875c4.710938 0 8.535157 3.824219 8.535157 8.535156s-3.824219 8.53125-8.535157 8.53125zm0 0"/><path d="m443.734375 477.867188c-2.1875 0-4.371094-.835938-6.035156-2.5-3.335938-3.335938-3.335938-8.730469 0-12.066407l25.601562-25.601562c3.335938-3.335938 8.730469-3.335938 12.066407 0 3.335937 3.335937 3.335937 8.730469 0 12.066406l-25.601563 25.601563c-1.664063 1.664062-3.847656 2.5-6.03125 2.5zm0 0"/><path d="m469.332031 452.265625c-2.183593 0-4.367187-.835937-6.03125-2.5l-25.601562-25.597656c-3.335938-3.339844-3.335938-8.730469 0-12.066407 3.335937-3.335937 8.730469-3.335937 12.066406 0l25.601563 25.597657c3.335937 3.335937 3.335937 8.730469 0 12.066406-1.664063 1.664063-3.847657 2.5-6.035157 2.5zm0 0"/><path d="m229.828125 435.199219c-2.515625 0-4.90625-1.109375-6.527344-3.035157l-79.359375-94.253906c-10.847656-12.882812-9.574218-32.542968 2.839844-43.835937 6.109375-5.554688 13.96875-8.308594 22.085938-7.773438 8.175781.546875 15.640624 4.351563 21 10.726563l37.886718 45.003906 127.53125-167.890625c5.050782-6.648437 12.332032-10.847656 20.488282-11.800781 8.097656-.933594 16.042968 1.398437 22.402343 6.613281 12.960938 10.632813 15.195313 30.207031 4.988281 43.636719l-166.542968 219.238281c-1.570313 2.066406-3.992188 3.304687-6.578125 3.371094-.078125 0-.144531 0-.214844 0zm-62.941406-131.898438c-3.167969 0-6.195313 1.195313-8.617188 3.394531-5.710937 5.199219-6.28125 14.269532-1.273437 20.226563l72.492187 86.089844 160.085938-210.746094c4.71875-6.210937 3.726562-15.242187-2.230469-20.121094-2.738281-2.253906-6.132812-3.269531-9.582031-2.859375-3.507813.410156-6.664063 2.253906-8.890625 5.171875l-133.984375 176.382813c-1.566407 2.066406-3.992188 3.304687-6.578125 3.371094-2.617188.152343-5.066406-1.050782-6.742188-3.027344l-44.753906-53.164063c-2.347656-2.789062-5.574219-4.453125-9.082031-4.683593-.28125-.027344-.5625-.035157-.84375-.035157zm0 0"/></svg>