<?xml version="1.0" standalone="no"?><!DOCTYPE svg PUBLIC "-//W3C//DTD SVG 1.1//EN" "http://www.w3.org/Graphics/SVG/1.1/DTD/svg11.dtd"><svg t="1576690785787" class="icon" viewBox="0 0 1024 1024" version="1.1" xmlns="http://www.w3.org/2000/svg" p-id="21450" xmlns:xlink="http://www.w3.org/1999/xlink" width="200" height="200"><defs><style type="text/css"></style></defs><path d="M960 513.2v0.4C959.1 759.9 758.5 960 512 960 258.4 960 53.4 748.3 64.4 492.3 74 268.5 252.3 83.2 475.6 65.4c128.3-10.2 252 33.8 344.3 121.1 6.6 6.2 11.6 14.1 13.4 22.9 2.9 14.2-1.2 28.2-10.8 38.4-7.8 8.3-18.4 13-29.8 13.2-11.9 0.4-22.2-3.9-30.5-11.7-67.7-64.5-156.5-100-250.1-100-213.8 0-384.9 185.9-360.3 404.5 18.9 167.8 155 302 322.9 318.9 193.3 19.5 360-114 393.7-293.8 1.6-8.7-5.3-16.6-14.1-16.6H776c-30.5 0-54.7-28.1-48.1-59.6 4.8-23 26.3-38.8 49.7-38.8h133.2c20.5 0 38.2 12.8 45.5 30.8 2.3 5.3 3.7 11 3.7 17.2v1.3z" p-id="21451"></path><path d="M512.7 648.2c-42.1 0-68.8-19.1-90.1-44-3.2-3.8-8.8-4.4-12.7-1.4l-74.1 56.7c-4.3 3.3-5 9.6-1.5 13.9C364.5 710.2 422 752 518.1 752 639.4 752 692 690.1 692 604.1c0-66-31-110.7-122.7-141.7l-60.7-20.6c-22.2-7.6-32.4-16.5-32.4-34.4 0-18.6 14.8-32.3 44.5-32.3 32.4 0 55.1 10.9 73 27.3 3.8 3.4 9.5 3.2 13-0.6l57.5-61.5c3.5-3.7 3.5-9.6 0-13.2C636.3 297.5 589 272 513.9 272c-81.6 0-156.4 47.4-156.4 139.6 0 77 47.2 118.3 113.9 141l53.9 18.6c30.3 10.3 45.2 19.9 45.2 39.9 0.2 26.1-21.4 37.1-57.8 37.1z" p-id="21452"></path></svg>