<?xml version="1.0" standalone="no"?><!DOCTYPE svg PUBLIC "-//W3C//DTD SVG 1.1//EN" "http://www.w3.org/Graphics/SVG/1.1/DTD/svg11.dtd"><svg t="1576692083412" class="icon" viewBox="0 0 1024 1024" version="1.1" xmlns="http://www.w3.org/2000/svg" p-id="46159" xmlns:xlink="http://www.w3.org/1999/xlink" width="200" height="200"><defs><style type="text/css"></style></defs><path d="M761.446 921.6H257.23c-29.287 0-53.043-23.757-53.043-53.043V261.734c0-29.286 23.756-53.043 53.043-53.043h159.334v26.624H257.23c-14.746 0-26.624 11.879-26.624 26.624v606.823c0 14.745 11.878 26.624 26.624 26.624H761.65c14.746 0 26.624-11.879 26.624-26.624V261.734c0-14.745-11.878-26.624-26.624-26.624H602.112v-26.624h159.334c29.287 0 53.044 23.757 53.044 53.044v606.822c0 29.491-23.757 53.248-53.044 53.248z m-389.53-146.432h195.175c7.373 0 13.312 5.94 13.312 13.312 0 7.373-5.939 13.312-13.312 13.312H371.917a13.285 13.285 0 0 1-13.312-13.312c0-7.373 5.939-13.312 13.312-13.312z m0-79.462h274.842c7.373 0 13.312 5.939 13.312 13.312 0 7.372-5.939 13.312-13.312 13.312H371.917a13.285 13.285 0 0 1-13.312-13.312c0-7.373 5.939-13.312 13.312-13.312z m217.089-407.552H429.67a13.285 13.285 0 0 1-13.312-13.312c0-7.373 5.94-13.312 13.312-13.312h13.312v-93.184c0-36.66 29.696-66.356 66.356-66.356 36.659 0 66.355 29.696 66.355 66.356v93.184h13.312c7.373 0 13.312 5.939 13.312 13.312-0.205 7.372-6.144 13.312-13.312 13.312z m-39.936-53.044v-66.56c0-21.913-17.818-39.73-39.731-39.73-21.914 0-39.732 17.817-39.732 39.73v93.184h79.668V235.11h-0.205zM622.182 610.1h-224.05c-1.434 0-3.687 0-4.711-0.41-1.229-0.409-4.096-1.433-5.325-2.252-1.229-1.024-3.072-3.277-3.891-4.915a104.98 104.98 0 0 0-0.82-2.253c-0.409-1.024-3.481-10.855-0.204-20.89l0.41-1.024 0.614-0.819c7.373-10.035 25.805-20.275 45.26-30.925 17.818-9.83 44.852-24.576 45.057-32.563v-4.506c0-1.843-0.82-3.686-2.048-4.915-15.77-16.179-24.372-37.888-24.372-61.44 0-38.093 7.168-77.005 61.03-77.005 53.863 0 61.031 38.912 61.031 77.005 0 23.552-8.601 45.261-24.371 61.44-1.229 1.434-2.048 3.072-2.048 4.915v4.71c0.205 7.783 27.238 22.529 45.056 32.36 19.456 10.649 37.888 20.889 45.26 30.924l0.615 0.82 0.41 1.023c3.072 10.24 0.205 19.866-0.205 20.89 0 0-0.41 1.638-0.82 2.253-0.818 1.433-3.071 4.096-4.3 4.915-1.638 1.024-3.072 1.638-4.915 2.253l-2.663 0.41z" p-id="46160"></path></svg>