<?xml version="1.0" standalone="no"?><!DOCTYPE svg PUBLIC "-//W3C//DTD SVG 1.1//EN" "http://www.w3.org/Graphics/SVG/1.1/DTD/svg11.dtd"><svg t="1576690467910" class="icon" viewBox="0 0 1251 1024" version="1.1" xmlns="http://www.w3.org/2000/svg" p-id="10422" xmlns:xlink="http://www.w3.org/1999/xlink" width="244.3359375" height="200"><defs><style type="text/css"></style></defs><path d="M431.729778 802.702222c-96.768 0-127.829333-77.937778-130.616889-120.32L191.431111 168.448H41.016889a28.046222 28.046222 0 1 1 0-56.149333h173.112889c13.255111 0 24.689778 9.272889 27.477333 22.243555l114.972445 540.16c1.479111 15.815111 9.443556 73.955556 81.351111 71.793778 103.310222-5.006222 561.891556-0.227556 581.404444-0.056889 5.290667-0.056889 53.077333-2.958222 71.168-80.384l69.745778-278.926222c4.437333-11.605333 11.320889-36.579556 2.218667-49.891556-8.704-12.743111-33.792-14.165333-47.445334-14.051555-113.777778 1.649778-753.607111 0-760.092444 0a28.046222 28.046222 0 0 1 0.056889-56.149334h0.056889c6.485333 0 645.632 1.649778 759.182222 0 44.088889-0.056889 76.913778 12.401778 94.776889 38.855112 27.477333 40.675556 6.826667 93.013333 4.323555 98.872888l-68.266666 274.488889c-29.013333 123.733333-123.107556 123.164444-126.634667 123.335111-4.437333-0.056889-476.16-4.778667-577.877333-0.056888a230.172444 230.172444 0 0 1-8.817778 0.170666z" p-id="10423"></path><path d="M386.56 487.708444a27.192889 27.192889 0 0 1-26.339556-22.755555c-3.015111-15.246222 8.135111-30.208 23.381334-33.223111 3.527111-0.682667 14.051556-2.787556 658.261333-0.568889a28.103111 28.103111 0 0 1-0.056889 56.149333h-0.113778c-249.742222-0.853333-629.020444-1.649778-649.728-0.113778a29.411556 29.411556 0 0 1-5.404444 0.512zM1010.972444 640.568889H439.239111a28.046222 28.046222 0 1 1 0-56.092445h571.733333a28.046222 28.046222 0 1 1 0 56.092445zM389.461333 215.665778a28.103111 28.103111 0 0 1-16.725333-50.631111l117.873778-86.926223a28.046222 28.046222 0 0 1 35.555555 1.820445l74.410667 67.640889L719.303111 12.231111a28.16 28.16 0 0 1 20.423111-9.557333 30.378667 30.378667 0 0 1 20.821334 8.476444l133.859555 137.784889 77.084445-67.356444c11.377778-9.841778 28.387556-9.102222 38.741333 1.763555l81.009778 84.878222a28.103111 28.103111 0 0 1-40.561778 38.798223l-62.464-65.422223-76.913778 67.185778a28.103111 28.103111 0 0 1-38.627555-1.536l-131.185778-135.054222-117.475556 133.973333a27.818667 27.818667 0 0 1-19.512889 9.500445 26.965333 26.965333 0 0 1-20.48-7.224889l-78.506666-71.452445-99.384889 73.159112a27.761778 27.761778 0 0 1-16.668445 5.518222zM947.427556 1021.326222a105.130667 105.130667 0 0 1-105.016889-104.96c0-57.912889 47.104-105.016889 105.016889-105.016889s105.016889 47.104 105.016888 105.016889a105.130667 105.130667 0 0 1-105.016888 104.96z m0-153.827555a48.924444 48.924444 0 0 0-48.867556 48.867555 48.924444 48.924444 0 0 0 97.735111 0 48.924444 48.924444 0 0 0-48.867555-48.867555zM545.621333 1021.326222a105.130667 105.130667 0 0 1-105.016889-104.96c0-57.912889 47.104-105.016889 105.016889-105.016889s105.016889 47.104 105.016889 105.016889a105.130667 105.130667 0 0 1-105.016889 104.96z m0-153.827555a48.924444 48.924444 0 0 0-48.867555 48.867555 48.924444 48.924444 0 0 0 97.735111 0 48.924444 48.924444 0 0 0-48.867556-48.867555z" p-id="10424"></path></svg>