<?xml version="1.0" standalone="no"?><!DOCTYPE svg PUBLIC "-//W3C//DTD SVG 1.1//EN" "http://www.w3.org/Graphics/SVG/1.1/DTD/svg11.dtd"><svg t="1576690901461" class="icon" viewBox="0 0 1024 1024" version="1.1" xmlns="http://www.w3.org/2000/svg" p-id="25277" xmlns:xlink="http://www.w3.org/1999/xlink" width="200" height="200"><defs><style type="text/css"></style></defs><path d="M887.753431 102.069677 135.385968 102.069677c-38.95215 0-70.52524 31.863708-70.52524 71.197552l0 676.562986c0 39.315424 31.573089 71.197552 70.52524 71.197552l752.367463 0c38.934754 0 70.52524-31.882128 70.52524-71.197552L958.278671 173.267229C958.278671 133.933385 926.688185 102.069677 887.753431 102.069677zM255.497557 253.008364c41.878806 76.487022 67.326385 124.983549 76.342736 145.486512l0.87288 0c3.052522-8.43409 11.413957-25.447579 25.083282-51.040467l51.258431-94.446046 45.587268 0-90.51962 153.992233 71.325465 0 0 34.026978-83.10372 0 0 46.896076 83.10372 0 0 34.462906-83.10372 0 0 68.270896-42.751686 0 0-68.270896-86.156242 0 0-34.462906 86.156242 0L309.592592 441.027575l-86.156242 0 0-34.026978 73.506131 0-89.64674-153.992233L255.497557 253.008364zM817.210795 781.912359 205.929628 781.912359l0-47.477314 611.280144 0L817.209772 781.912359zM817.210795 568.31868 535.072997 568.31868l0-47.458895 282.137799 0L817.210795 568.31868zM817.210795 449.662233 535.072997 449.662233l0-47.459918 282.137799 0L817.210795 449.662233zM817.210795 331.004763 535.072997 331.004763l0-47.458895 282.137799 0L817.210795 331.004763z" p-id="25278"></path></svg>