<?xml version="1.0" standalone="no"?><!DOCTYPE svg PUBLIC "-//W3C//DTD SVG 1.1//EN" "http://www.w3.org/Graphics/SVG/1.1/DTD/svg11.dtd"><svg t="1576690501022" class="icon" viewBox="0 0 1024 1024" version="1.1" xmlns="http://www.w3.org/2000/svg" p-id="11185" xmlns:xlink="http://www.w3.org/1999/xlink" width="200" height="200"><defs><style type="text/css"></style></defs><path d="M236.072389 255.429011h235.455401a16.821671 16.821671 0 0 0 0-33.645343h-235.455401a16.823671 16.823671 0 0 0 0 33.645343zM604.207199 315.635835h-368.13281a16.823671 16.823671 0 0 0 0 33.645343h368.13281a16.821671 16.821671 0 0 0 0-33.645343zM236.072389 443.129345h235.455401a16.823671 16.823671 0 0 0 0-33.645343h-235.455401a16.821671 16.821671 0 0 0 0 33.645343zM575.225765 732.327697H217.222757a16.823671 16.823671 0 0 0-16.821671 16.823671v105.279944a16.821671 16.821671 0 0 0 16.821671 16.821671h358.003008a16.823671 16.823671 0 0 0 16.823672-16.821671v-105.279944a16.821671 16.821671 0 0 0-16.823672-16.823671z m-16.821671 105.281943H234.046429v-71.6366h324.357665v71.6366zM236.072389 536.979512h131.58343a16.823671 16.823671 0 0 0 0-33.645343h-131.58343a16.821671 16.821671 0 0 0 0 33.645343zM236.072389 630.829679h235.455401a16.823671 16.823671 0 0 0 0-33.645343h-235.455401a16.821671 16.821671 0 0 0 0 33.645343zM604.207199 127.931501h-368.13281a16.823671 16.823671 0 0 0 0 33.645343h368.13281a16.821671 16.821671 0 0 0 0-33.645343zM716.880998 630.829679h72.424586a16.823671 16.823671 0 0 0 0-33.645343h-72.424586a16.821671 16.821671 0 0 0-16.821671 16.821672 16.819671 16.819671 0 0 0 16.821671 16.823671zM764.182075 783.610695v-29.829417c5.297897 1.375973 10.793789 3.727927 16.289681 6.673869a14.299721 14.299721 0 0 0 6.869866 1.767966c7.455854 0 13.343739-5.689889 13.34374-13.147743 0-5.885885-3.335935-9.615812-7.065862-11.77577-8.437835-4.709908-17.859651-7.847847-28.455445-9.417816v-2.747947a10.137802 10.137802 0 0 0-10.2058-10.2038 10.135802 10.135802 0 0 0-10.203801 10.2038v2.357954c-24.729517 2.55195-41.215195 17.073667-41.215195 38.659245 0 23.357544 13.933728 34.149333 42.193176 41.803184v31.20539c-9.027824-1.961962-16.87567-5.689889-25.119509-10.987785-2.355954-1.569969-5.1019-2.55195-7.655851-2.55195-7.653851 0-13.541736 5.689889-13.541735 13.343739 0 5.299896 2.55195 9.22382 6.673869 11.77577 11.577774 7.063862 24.727517 11.971766 38.663245 13.735732v10.597793a10.137802 10.137802 0 0 0 10.203801 10.2058 10.139802 10.139802 0 0 0 10.2058-10.2058v-10.403797c24.727517-2.747946 41.603187-16.87567 41.603188-38.855241 0.002-21.987571-12.753751-34.157333-42.583168-42.203176z m-18.44764-5.0999c-10.793789-3.927923-13.541736-8.047843-13.541736-14.131724 0-6.279877 4.11992-10.991785 13.541736-12.365759v26.497483z m18.44764 61.622796v-27.277467c10.597793 3.727927 13.933728 8.043843 13.933727 14.519716 0.002 7.065862-4.709908 11.383778-13.933727 12.757751zM716.880998 161.576844h72.424586a16.821671 16.821671 0 0 0 0-33.645343h-72.424586a16.823671 16.823671 0 0 0-16.821671 16.823672 16.819671 16.819671 0 0 0 16.821671 16.821671zM716.880998 536.979512h72.424586a16.823671 16.823671 0 0 0 0-33.645343h-72.424586a16.821671 16.821671 0 0 0-16.821671 16.821672 16.819671 16.819671 0 0 0 16.821671 16.823671z" p-id="11186"></path><path d="M859.536212 0H164.455788C136.626332 0 113.986774 22.639558 113.986774 50.469014V982.500811c0 22.647558 14.173723 38.463249 34.467327 38.463248 6.573872 0 13.29374-1.729966 19.971609-5.137899l35.36731-18.061648c5.565891-2.841944 13.697732-4.471913 22.313564-4.471912s16.749673 1.629968 22.313564 4.469912l35.367309 18.063648c10.293799 5.257897 23.653538 8.151841 37.615266 8.15184 13.959727 0 27.319466-2.895943 37.615265-8.15384l35.371309-18.063648c5.561891-2.841944 13.693733-4.471913 22.309564-4.471912 8.615832 0 16.751673 1.629968 22.315564 4.471912l35.36731 18.063648c10.295799 5.257897 23.653538 8.151841 37.615265 8.15184 13.959727 0 27.319466-2.895943 37.615265-8.15384l35.37131-18.063647c5.561891-2.841944 13.693733-4.471913 22.309564-4.471913 8.615832 0 16.751673 1.629968 22.315564 4.471913l35.367309 18.063647c10.293799 5.257897 23.653538 8.151841 37.615266 8.151841 13.963727 0 27.319466-2.895943 37.615265-8.153841l35.367309-18.061647c5.565891-2.841944 13.697732-4.471913 22.313564-4.471913s16.749673 1.629968 22.313564 4.469913l35.36731 18.063647c6.67787 3.409933 13.395738 5.1379 19.96961 5.137899h0.002c10.161802 0 19.253624-4.169919 25.6035-11.73977 5.797887-6.913865 8.861827-16.153684 8.861826-26.723478V50.461014C910.003226 22.639558 887.363669 0 859.536212 0z m16.821672 982.500811c0 2.639948-0.49999 4.183918-0.819984 4.817905-0.547989 0-2.095959-0.141997-4.669909-1.457971l-35.365309-18.063647c-10.295799-5.257897-23.653538-8.151841-37.615266-8.151841-13.959727 0-27.319466 2.895943-37.615265 8.153841l-35.367309 18.061647c-5.565891 2.841944-13.697732 4.471913-22.313564 4.471913s-16.749673-1.629968-22.313565-4.469913l-35.365309-18.063647c-10.295799-5.257897-23.655538-8.153841-37.617265-8.153841-13.963727 0-27.319466 2.895943-37.613266 8.153841l-35.367309 18.061647c-5.565891 2.841944-13.697732 4.471913-22.313564 4.471913s-16.749673-1.629968-22.313564-4.469913l-35.367309-18.063647c-10.295799-5.257897-23.655538-8.153841-37.617266-8.153841s-27.319466 2.895943-37.613265 8.153841l-35.367309 18.061647c-5.565891 2.841944-13.697732 4.471913-22.313565 4.471913s-16.749673-1.629968-22.313564-4.469913l-35.367309-18.063647c-10.295799-5.257897-23.653538-8.151841-37.615265-8.151841-13.959727 0-27.319466 2.895943-37.615266 8.153841l-35.367309 18.061647c-2.57795 1.315974-4.125919 1.457972-4.669909 1.457971h-0.011999c-0.319994-0.633988-0.819984-2.177957-0.819984-4.817906l0.006-932.035796c0-9.277819 7.547853-16.823671 16.823671-16.823671h695.080424c9.275819 0 16.821671 7.545853 16.821672 16.823671V982.500811z" p-id="11187"></path><path d="M716.880998 443.129345h72.424586a16.823671 16.823671 0 0 0 0-33.645343h-72.424586a16.821671 16.821671 0 0 0-16.821671 16.821672 16.819671 16.819671 0 0 0 16.821671 16.823671zM716.880998 255.429011h72.424586a16.821671 16.821671 0 0 0 0-33.645343h-72.424586a16.823671 16.823671 0 0 0-16.821671 16.823672 16.819671 16.819671 0 0 0 16.821671 16.821671zM716.880998 349.281178h72.424586a16.821671 16.821671 0 0 0 0-33.645343h-72.424586c-9.289819 0-16.821671 7.531853-16.821671 16.823672s7.529853 16.821671 16.821671 16.821671z" p-id="11188"></path></svg>