<?xml version="1.0" standalone="no"?><!DOCTYPE svg PUBLIC "-//W3C//DTD SVG 1.1//EN" "http://www.w3.org/Graphics/SVG/1.1/DTD/svg11.dtd"><svg t="1576691335269" class="icon" viewBox="0 0 1024 1024" version="1.1" xmlns="http://www.w3.org/2000/svg" p-id="36754" xmlns:xlink="http://www.w3.org/1999/xlink" width="200" height="200"><defs><style type="text/css"></style></defs><path d="M128 960c-19.2 0-32-12.8-32-32v-832c0-19.2 12.8-32 32-32s32 12.8 32 32v832c0 16-12.8 32-32 32z" fill="#333333" p-id="36755"></path><path d="M1024 806.4c0 19.2-12.8 32-32 32h-960c-19.2 0-32-12.8-32-32s12.8-32 32-32h960c19.2 0 32 16 32 32zM320 672c-19.2 0-32-12.8-32-32v-320c0-19.2 12.8-32 32-32s32 12.8 32 32v320c0 16-12.8 32-32 32zM480 672c-19.2 0-32-12.8-32-32v-192c0-19.2 12.8-32 32-32s32 12.8 32 32v192c0 16-12.8 32-32 32zM640 672c-19.2 0-32-12.8-32-32v-512c0-19.2 12.8-32 32-32s32 12.8 32 32v512c0 16-12.8 32-32 32zM800 672c-19.2 0-32-12.8-32-32v-384c0-19.2 12.8-32 32-32s32 12.8 32 32v384c0 16-12.8 32-32 32z" fill="#333333" p-id="36756"></path></svg>