<?xml version="1.0" standalone="no"?><!DOCTYPE svg PUBLIC "-//W3C//DTD SVG 1.1//EN" "http://www.w3.org/Graphics/SVG/1.1/DTD/svg11.dtd"><svg t="1576690394366" class="icon" viewBox="0 0 1024 1024" version="1.1" xmlns="http://www.w3.org/2000/svg" p-id="7661" xmlns:xlink="http://www.w3.org/1999/xlink" width="200" height="200"><defs><style type="text/css"></style></defs><path d="M929.295093 711.182172l-5.116419-2.660538-2.660538-2.660538c0 0 5.116419-2.660538 7.776956-5.218747 20.772659-10.437494 31.107825-31.41481 28.549615-52.392126-2.660538-23.535525-7.776956-41.954632-18.112122-57.610872-15.553912-26.196063-38.884781-34.075347-69.992605-23.535525-2.660538 0-5.116419 2.660538-7.776956 2.660538 0 0 0-2.660538 0-5.218747 7.776956-20.977316 2.660538-44.512841-12.995703-62.829619-5.116419-5.218747-15.553912-15.758569-31.107825-20.977316-12.995703-5.218747-25.889078-7.879285-36.224243-7.879285-33.666034 0-46.661737 28.8566-51.880484 39.294094 0 0 0 0-2.660538-2.660538 0 0 0-2.660538-2.660538-2.660538 0-2.660538-2.660538-5.218747-2.660538-7.879285-10.335165-15.758569-25.889078-26.196063-44.001199-26.196063-2.660538 0-5.116419 0-7.776956 0-12.995703 2.660538-25.889078 2.660538-38.884781 10.437494-36.224243 18.316778-49.219946 41.954632-41.545318 78.588188 0 5.218747 0 5.218747 0 5.218747-2.660538 0-5.116419 0-7.776956-2.660538-23.330868-7.879285-44.001199 0-59.65744 18.316778-7.776956 10.437494-15.553912 23.535525-18.112122 41.954632-10.335165 36.633557 0 62.829619 33.666034 78.588188 0 0-2.660538 2.660538-5.116419 2.660538-20.772659 7.879285-31.107825 26.196063-33.666034 49.731588 0 28.8566 7.776956 55.052663 28.549615 73.369441 12.995703 13.098031 28.549615 18.316778 49.219946 15.758569 2.660538 0 5.116419 0 7.776956-2.660538l2.660538 0 0 2.660538c-7.776956 23.535525-2.660538 44.512841 15.553912 62.829619 12.995703 13.098031 28.549615 20.977316 49.219946 26.196063 10.335165 2.660538 18.112122 2.660538 23.330868 2.660538 31.107825 0 46.661737-26.196063 51.880484-36.633557 0-2.660538 2.660538-2.660538 2.660538-2.660538s0 0 2.660538 2.660538l2.660538 2.660538c0 2.660538 2.660538 5.218747 5.116419 7.879285 12.995703 20.977316 31.107825 28.8566 54.438693 26.196063 18.112122-2.660538 33.666034-7.879285 49.219946-18.316778 25.889078-18.316778 33.666034-44.512841 23.330868-73.369441l2.660538 0c2.660538 0 2.660538 0 5.116419 0 31.107825 7.879285 54.438693-2.660538 72.550814-31.41481 7.776956-13.098031 12.995703-28.8566 15.553912-47.173379C963.063456 745.155191 950.067753 724.280204 929.295093 711.182172zM869.637654 713.740382c2.660538 15.758569 10.335165 31.41481 25.889078 39.294094 2.660538 0 2.660538 2.660538 5.116419 2.660538l2.660538 0c5.116419 2.660538 5.116419 2.660538 5.116419 7.879285 0 10.437494-2.660538 15.758569-7.776956 23.535525-5.116419 7.879285-7.776956 7.879285-10.335165 7.879285s-5.116419 0-7.776956 0-5.116419 0-7.776956-2.660538l-2.660538 0c-23.330868-2.660538-41.545318 5.218747-51.880484 20.977316-10.335165 15.758569-10.335165 34.075347-5.116419 52.392126 2.660538 5.218747 2.660538 5.218747-2.660538 10.437494-7.776956 5.218747-18.112122 10.437494-31.107825 10.437494l-2.660538-2.660538c0 0 0-2.660538-2.660538-5.218747 0-2.660538-2.660538-2.660538-2.660538-2.660538-12.995703-23.535525-33.666034-28.8566-46.661737-28.8566-10.335165 0-31.107825 2.660538-46.661737 28.8566-5.116419 7.879285-7.776956 10.437494-7.776956 10.437494-2.660538 0-5.116419 0-10.335165-2.660538-10.335165-2.660538-20.772659-7.879285-28.549615-15.758569 0 0 0 0 0-2.660538 0-2.660538 0-2.660538 2.660538-7.879285 5.116419-15.758569 5.116419-31.41481-5.116419-44.512841-7.776956-13.098031-23.330868-20.977316-38.884781-20.977316-2.660538 0-2.660538 0-5.116419 0l-2.660538 0c-5.116419 0-10.335165 0-15.553912 2.660538-2.660538 0-2.660538 0-7.776956 0-10.335165-10.437494-12.995703-23.535525-12.995703-39.294094 12.995703-5.218747 20.772659-13.098031 28.549615-23.535525 7.776956-13.098031 10.335165-26.196063 7.776956-41.954632-2.660538-15.758569-12.995703-28.8566-28.549615-36.633557-10.335165-5.218747-10.335165-5.218747-7.776956-18.316778 2.660538-10.437494 5.116419-15.758569 10.335165-20.977316l2.660538-2.660538 2.660538 0c15.553912 5.218747 25.889078 5.218747 36.224243 2.660538 28.549615-7.879285 44.001199-34.075347 38.884781-68.150695-2.660538-7.879285 0-10.437494 0-10.437494s2.660538-2.660538 12.995703-7.879285c7.776956-2.660538 12.995703-5.218747 23.330868-5.218747l2.660538 2.660538c2.660538 2.660538 2.660538 5.218747 5.116419 7.879285 10.335165 15.758569 28.549615 26.196063 46.661737 26.196063 18.112122 0 36.224243-10.437494 44.001199-28.8566 5.116419-10.437494 7.776956-10.437494 7.776956-10.437494 5.116419 0 15.553912 5.218747 20.772659 5.218747 5.116419 2.660538 7.776956 5.218747 12.995703 7.879285 2.660538 2.660538 2.660538 2.660538 2.660538 5.218747-5.116419 13.098031-5.116419 26.196063-2.660538 36.633557 5.116419 26.196063 31.107825 44.512841 59.65744 39.294094 5.116419 0 10.335165-2.660538 15.553912-5.218747 2.660538 0 5.116419 0 5.116419-2.660538 0 0 2.660538 0 5.116419 5.218747 5.116419 7.879285 7.776956 18.316778 10.335165 31.41481l-5.116419 13.098031c-5.116419 2.660538-12.995703 7.879285-20.772659 15.758569C872.298191 682.4279 867.181773 698.084141 869.637654 713.740382z" p-id="7662"></path><path d="M729.754772 603.839712c-56.996902 0-103.658639 47.173379-103.658639 104.784251s46.661737 104.784251 103.658639 104.784251 103.658639-47.173379 103.658639-104.784251S786.751674 603.839712 729.754772 603.839712zM729.754772 760.91376c-28.549615 0-51.880484-23.535525-51.880484-52.392126 0-28.8566 23.330868-52.392126 51.880484-52.392126s51.880484 23.535525 51.880484 52.392126C781.532927 737.378235 758.202059 760.91376 729.754772 760.91376z" p-id="7663"></path><path d="M730.982712 994.938743c-136.710703 0-251.318477-94.653742-282.016988-221.950235-51.266513-38.475467-106.830818-99.565504-106.830818-99.565504s-182.860797 28.8566-246.304387 72.346158S4.451284 1019.59988 4.451284 1019.59988l1015.19976 0c0 0-7.879285-94.960727-34.280004-175.18617C936.048766 934.155691 840.576397 994.938743 730.982712 994.938743z" p-id="7664"></path><path d="M730.982712 414.839213c8.288598 0 16.474868 0.409313 24.558809 1.023284 11.051464-33.768362 17.191166-70.504247 17.191166-108.877386 0-167.102228-115.426402-302.584991-257.765164-302.584991S257.304687 139.882882 257.304687 306.98511c0 144.794644 86.569801 265.746777 202.303188 295.524333C500.948536 492.813431 606.858399 414.839213 730.982712 414.839213z" p-id="7665"></path></svg>