<?xml version="1.0" standalone="no"?><!DOCTYPE svg PUBLIC "-//W3C//DTD SVG 1.1//EN" "http://www.w3.org/Graphics/SVG/1.1/DTD/svg11.dtd"><svg t="1576691310493" class="icon" viewBox="0 0 1024 1024" version="1.1" xmlns="http://www.w3.org/2000/svg" p-id="36019" xmlns:xlink="http://www.w3.org/1999/xlink" width="200" height="200"><defs><style type="text/css"></style></defs><path d="M363.4 648.6l22.3-27V601h-78.1v35.6h24.8v-12.4c7.5 0 15.3-0.5 22.8-0.5v0.2c-10.1 9.1-17.8 21.1-26.3 31.9l6.1 13.1c9.6-0.7 24.6 0 24.6 13.2 0 9.4-8.7 13.4-16.9 13.4-8.9 0-18.5-4.7-24.9-10.6l-13.4 20.7c10.6 10.5 25.6 15.5 40.3 15.5 24.4 0 44.6-14.6 44.6-40.3 0.2-16.2-10.2-28.5-25.9-32.2zM364.9 302.9H340l-31.9 29.8 16.6 17.8c4.4-4 9.1-7.5 11.7-12.6h0.5v2.8c0 19-0.2 38-0.2 57h-25.1v23.2h78.6v-23.2h-25.3v-94.8zM365.3 547.8h-29.8c0.7-18.3 51.6-26 51.6-60.7 0-23.2-18.8-36.1-40.6-36.1-17.8 0-33.8 9.1-41.5 25.3l19.9 13.8c4-6.6 10.8-13.6 19-13.6 7.7 0 12.7 4.2 12.7 12.2 0 19.7-53 26.2-53 69.6 0 4.2 0.7 8.4 1.4 12.7h84.9v-37.3h-24.6v14.1zM712.8 601H427.7c-4.2 0-7.5 3.3-7.5 7.5v45c0 4 3.3 7.5 7.5 7.5h285.2c4 0 7.5-3.5 7.5-7.5v-45c-0.1-4.2-3.6-7.5-7.6-7.5zM712.8 360.9H427.7c-4.2 0-7.5 3.5-7.5 7.5v45c0 4 3.3 7.5 7.5 7.5h285.2c4 0 7.5-3.5 7.5-7.5v-45c-0.1-4-3.6-7.5-7.6-7.5zM712.8 480.9H427.7c-4.2 0-7.5 3.3-7.5 7.5v45c0 4 3.3 7.5 7.5 7.5h285.2c4 0 7.5-3.5 7.5-7.5v-45c-0.1-4.2-3.6-7.5-7.6-7.5z" p-id="36020"></path><path d="M512 64C264.6 64 64 264.6 64 512s200.6 448 448 448 448-200.6 448-448S759.4 64 512 64z m0 848.8C291 912.8 111.2 733 111.2 512S291 111.2 512 111.2 912.8 291 912.8 512 733 912.8 512 912.8z" p-id="36021"></path></svg>