<?xml version="1.0" standalone="no"?><!DOCTYPE svg PUBLIC "-//W3C//DTD SVG 1.1//EN" "http://www.w3.org/Graphics/SVG/1.1/DTD/svg11.dtd"><svg t="1576690746415" class="icon" viewBox="0 0 1024 1024" version="1.1" xmlns="http://www.w3.org/2000/svg" p-id="20000" xmlns:xlink="http://www.w3.org/1999/xlink" width="200" height="200"><defs><style type="text/css"></style></defs><path d="M282.18624 3.59936c-2.0864 1.41568-5.4912 2.78784-7.5648 3.0464-2.07616 0.26112-4.47488 1.32608-5.33248 2.37056-0.8576 1.04448-3.15392 2.21696-5.10464 2.60864-1.95072 0.38912-4.47488 1.58976-5.60896 2.66752-10.98496 10.42944-16.91136 16.53248-16.91136 17.41568 0 0.58368-0.70144 1.05984-1.5616 1.05984-0.8576 0-1.99168 1.13408-2.51904 2.51904-0.52736 1.38496-1.88672 3.44832-3.0208 4.5824-1.13408 1.13408-2.36544 3.3408-2.73408 4.90496-0.3712 1.5616-1.56928 3.82976-2.66752 5.04064-1.21856 1.34656-2.19904 4.29312-2.52672 7.59808-0.38144 3.85792-1.1648 5.91104-2.73664 7.18336-4.91008 3.97568-3.4944 111.53152 1.46688 111.53152 0.51712 0 0.93952 1.84832 0.93952 4.10624 0 3.14368 0.704 4.84096 3.008 7.25248 1.65376 1.73056 2.76992 3.7632 2.48064 4.5184-0.74496 1.94304 1.31328 5.37344 3.6736 6.12096 1.09824 0.35072 1.7792 1.20576 1.5104 1.90208-0.26624 0.69632 0.9088 2.60096 2.61376 4.23424 1.7024 1.63328 3.0976 3.45344 3.0976 4.0448 0 1.2672 9.152 9.74848 10.70848 9.92512 0.58624 0.06656 1.4208 0.064 1.85344-0.00512 0.4352-0.07168 1.31328 1.02656 1.9584 2.43968 0.64256 1.41056 1.55648 2.624 2.02752 2.69312 0.4736 0.07168 1.34656 0.18688 1.94304 0.256 0.59392 0.07168 1.87136 1.17248 2.83392 2.44992 1.01888 1.35168 3.18976 2.50624 5.18912 2.75712 1.89184 0.24064 4.52608 1.4592 5.85728 2.71104 1.95584 1.83552 3.95264 2.36032 10.368 2.72128 6.30784 0.35584 8.44288 0.90368 10.33472 2.6496l2.38592 2.19904h417.46432l2.38592-2.19904c1.89184-1.74592 4.02688-2.29376 10.33472-2.6496 6.41536-0.36096 8.41216-0.88576 10.368-2.72128 1.3312-1.25184 3.97568-2.46784 5.8752-2.7008 1.90208-0.23552 4.1472-1.24672 4.992-2.24768 0.8448-1.00096 2.8288-2.39616 4.41088-3.10272 1.57952-0.70656 2.62144-1.6896 2.31424-2.18624-0.5888-0.95232 2.368-3.90144 3.41504-3.40992 1.19296 0.55552 10.16832-8.15104 11.35104-11.01056 0.66304-1.59744 2.0864-3.136 3.16416-3.4176 1.07776-0.2816 2.25792-1.36192 2.624-2.40128 0.36608-1.03936 1.52832-2.58816 2.58304-3.4432 1.05472-0.85504 2.11968-3.14112 2.36544-5.0816 0.26624-2.10176 1.3952-4.23936 2.79808-5.29664 1.2928-0.97536 2.42176-2.83648 2.5088-4.13696 0.36864-5.4144 1.80736-10.47296 3.44832-12.11392 4.07552-4.07552 3.75808-100.70528-0.3456-105.23904-0.87296-0.96512-1.92-4.2496-2.32448-7.29856-0.53504-4.04992-1.51552-6.35904-3.63008-8.57344-1.59488-1.66656-2.6368-3.45344-2.31936-3.968 0.32-0.51712-0.55808-2.432-1.95072-4.25472-1.39008-1.82528-2.7008-4.2112-2.91072-5.30688-0.21248-1.09312-1.53088-2.57536-2.93632-3.29216-1.40288-0.7168-2.43712-1.75872-2.30144-2.31168 0.13824-0.55296-0.89856-1.75872-2.304-2.67776-1.40288-0.9216-2.55232-2.29632-2.55232-3.05664 0-0.76032-1.0368-1.9328-2.304-2.60352-1.2672-0.67328-2.9056-2.07104-3.64288-3.10784-0.73472-1.03936-1.86112-1.88672-2.50368-1.88672-0.64 0-2.3552-1.1392-3.80672-2.53184-1.45408-1.39264-3.76832-2.65984-5.14304-2.816-1.37472-0.15616-3.43552-1.33376-4.5824-2.61632-1.22368-1.37216-3.67872-2.53184-5.96224-2.816-2.13248-0.26368-5.28128-1.51808-6.99648-2.78784l-3.11808-2.304-221.46816-0.256-221.46816-0.256-3.79392 2.57536m428.10368 72.17152c1.42336 0.00256 2.39616 0.8192 2.77504 2.3296 0.32 1.27744 1.5232 3.33312 2.67264 4.56448 2.74176 2.944 3.33568 72.98304 0.61952 72.98304-0.8064 0-1.75104 0.89856-2.10176 1.9968-0.34816 1.09568-1.53088 2.2784-2.62912 2.62912-1.09824 0.34816-2.47296 1.5232-3.05408 2.6112-1.14944 2.14528-403.78112 3.23328-403.16416 1.088 0.1408-0.49152-1.8176-2.74176-4.352-5.0048l-4.608-4.11136V83.456l2.56-3.7632c1.57952-2.32192 3.54048-3.8912 5.12-4.096 1.90464-0.24832 218.60096-0.1536 406.16192 0.17408M148.82304 83.99104c-1.21856 0.47872-2.60096 1.55648-3.072 2.39616-0.4736 0.8448-2.80832 1.72032-5.23776 1.96096-2.72384 0.27392-5.34272 1.34144-6.9248 2.8288-1.39776 1.31328-3.54816 2.46272-4.7744 2.55232-1.2288 0.09216-2.89024 1.15712-3.69664 2.37056-0.80384 1.21088-2.08128 2.20416-2.83904 2.20416-0.7552 0-2.88768 1.3056-4.73856 2.90048-1.85088 1.59232-4.18048 3.19488-5.17888 3.5584-0.9984 0.36608-2.112 1.47968-2.47808 2.47808-0.36352 0.9984-1.96608 3.328-3.5584 5.17888-1.59488 1.85088-2.90048 4.0064-2.90048 4.79488 0 0.78592-0.89856 1.7152-1.9968 2.06592-1.09568 0.34816-2.30144 1.64608-2.67776 2.88256-0.37376 1.23904-1.5616 3.21792-2.63936 4.39808-1.07776 1.1776-2.15296 3.68128-2.39104 5.56288-0.23808 1.87904-1.1136 3.79648-1.94304 4.2624-2.176 1.21856-3.5072 6.45376-3.67616 14.464-0.10496 4.90496-0.73984 7.95136-2.13504 10.24-3.06176 5.02016-3.14112 770.39616-0.08192 775.41376 1.32608 2.17344 2.07104 5.90336 2.44224 12.2368 0.43008 7.37792 0.91136 9.41312 2.52416 10.72128 1.09568 0.88576 2.28608 3.43296 2.6496 5.6576 0.36096 2.2272 1.5616 4.7488 2.66752 5.6064 1.10848 0.86016 2.31424 2.79552 2.68032 4.30336 0.36608 1.50528 1.59744 3.57888 2.7392 4.608 1.1392 1.02656 2.4704 2.90304 2.95424 4.17024 0.48384 1.2672 1.46944 2.30656 2.18624 2.31168 0.71936 0.00256 2.09152 1.38496 3.04896 3.072 0.96 1.68448 2.4576 3.06432 3.328 3.06432 0.87296 0 1.58464 0.70144 1.58464 1.5616 0 0.8576 1.12384 1.98912 2.49856 2.51136 1.37216 0.52224 2.9824 1.856 3.57376 2.96192 0.59392 1.10848 2.58048 2.32704 4.416 2.71104 1.83552 0.384 4.0704 1.62816 4.96896 2.76736 0.95744 1.21344 3.23328 2.24512 5.49888 2.496 2.33984 0.25856 4.5696 1.29792 5.65248 2.63424 1.54112 1.90464 3.09248 2.2656 11.33312 2.63936 6.25664 0.28416 10.0352 0.9216 10.96192 1.85088 2.8672 2.8672 13.10976 2.95424 344.48128 2.95424h337.57952l2.9696-2.19392c2.40384-1.7792 4.73856-2.2656 12.29312-2.56 7.96416-0.31232 9.67936-0.70144 11.77344-2.67008 1.34912-1.2672 3.70944-2.304 5.248-2.304 1.67424 0 3.90912-1.11104 5.56544-2.76992 1.5232-1.52064 3.58656-2.8288 4.58496-2.90048 0.9984-0.07424 3.0976-1.36192 4.66432-2.86464 1.56672-1.50016 3.22304-2.72896 3.68128-2.72896 1.26208 0 8.78336-7.78752 8.78336-9.09568 0-0.62976 0.6144-1.14432 1.36448-1.14432 1.44384 0 7.13728-8.20992 8.27904-11.93984 0.3712-1.21856 1.83552-2.97216 3.2512-3.89888 1.41568-0.92928 2.47552-2.46784 2.35776-3.42016-0.28928-2.30144 1.15712-7.36512 2.10176-7.36512 3.15648 0 3.19232-4.56704 3.072-409.46432-0.064-222.25664-0.10752-404.90496-0.09728-405.88288 0.0128-0.97792-0.80896-2.36032-1.82272-3.072-1.55904-1.09056-3.60704-6.57664-3.17184-8.48896 0.07424-0.31488-1.04448-1.9712-2.48064-3.67872-2.41152-2.8672-3.04128-4.30336-2.74176-6.25664 0.064-0.41216-1.03424-1.50272-2.43968-2.42176-1.40288-0.9216-2.55232-2.24-2.55232-2.93376 0-0.69376-0.96768-2.13504-2.15296-3.20768-1.18272-1.07264-2.80576-3.2128-3.60448-4.75648-0.79872-1.54368-3.17184-3.69664-5.27104-4.78208-2.10176-1.08544-4.41088-2.94912-5.1328-4.14208-0.71936-1.19552-2.10176-2.04032-3.072-1.87904-0.96768 0.16128-1.64608-0.27392-1.5104-0.96512 0.28672-1.44128-4.59264-4.97664-5.54752-4.02176-0.3456 0.3456-2.1888-0.74496-4.09856-2.42176-2.28096-2.00192-4.57984-3.04896-6.69952-3.04896-1.93792 0-4.20608-0.9216-5.67808-2.304-2.33728-2.19904-3.32544-2.31424-21.44256-2.5472-21.40672-0.27392-23.6288 0.03072-24.91904 3.42528-0.53248 1.3952-1.49248 2.19136-2.28352 1.88672-1.39776-0.5376-8.93952 6.2464-8.93952 8.04096 0 0.54528-1.1904 2.09408-2.64704 3.4432l-2.64448 2.45248 0.34048 17.31328c0.34304 17.28768 0.3456 17.31328 3.15904 20.24704 1.5488 1.61536 2.816 3.47392 2.816 4.12672 0 0.6528 1.01888 1.73312 2.26048 2.39872 1.24416 0.6656 2.97728 2.09152 3.8528 3.17184 0.94976 1.17248 3.43552 2.19392 6.18496 2.54208 2.52928 0.31744 5.61664 1.50272 6.85824 2.63424 2.05056 1.86112 5.78304 2.55232 14.89152 2.75968 0.9856 0.02304 1.792 0.77568 1.792 1.67168 0 0.89856 0.87808 1.86368 1.95072 2.14272 1.25184 0.32768 2.19136 1.78432 2.61888 4.0576 0.36608 1.95072 1.5616 4.44416 2.65472 5.53728 2.73664 2.73664 3.19232 752.36096 0.4608 754.62656-0.84224 0.70144-2.09408 3.17696-2.78016 5.50144-1.48992 5.05856-2.7136 6.45888-6.4512 7.3984-1.5488 0.38912-3.04128 1.56416-3.3152 2.60864-0.48384 1.85088-9.80992 1.90464-334.29504 1.90464H173.89568l-1.69984-2.09408c-0.9344-1.14944-2.97728-2.2272-4.53632-2.39104-3.27168-0.34816-5.7984-3.24096-5.11232-5.85728 0.28416-1.08544-0.384-2.33472-1.67936-3.14368l-2.14784-1.34144V548.77696c0-375.63904 0.02048-379.51744 2.00704-381.31712 1.10336-0.9984 1.9712-2.10688 1.92768-2.46272-0.25344-2.01984 0.32768-3.20512 1.57184-3.20512 0.77568 0 2.04288-0.93696 2.816-2.08384 1.08544-1.60512 2.70592-2.14272 7.09888-2.35008 3.8656-0.18176 6.68928-0.97792 8.80384-2.4832 1.71008-1.21856 4.7232-2.3936 6.69184-2.6112 4.1216-0.45312 5.91616-1.3696 7.79776-3.97824 0.73472-1.01888 2.02496-1.85344 2.8672-1.85344 0.84224 0 2.15552-1.4976 2.92096-3.328 0.76544-1.8304 2.4704-4.6976 3.7888-6.3744 2.24512-2.85184 2.39104-3.8912 2.32448-16.384-0.09728-17.68192-0.26624-18.80832-3.12832-20.6848-1.33632-0.87552-2.432-2.05312-2.432-2.61888 0-1.63328-8.01792-9.20576-9.0624-8.56064-0.51968 0.32-1.18272-0.32768-1.47456-1.44128-0.29184-1.1136-1.6896-2.46528-3.10528-3.00288-3.17696-1.20832-38.25152-1.24672-41.31072-0.04608m573.41184 281.66144c-1.2032 0.44544-2.5728 1.4592-3.04384 2.25536-0.47104 0.7936-2.69568 1.73568-4.94336 2.08896-2.24768 0.35328-4.25216 1.1392-4.45696 1.74848-0.20224 0.60672-1.0368 1.65632-1.85088 2.32704-4.32128 3.56096-20.83584 20.38784-20.83584 21.23008 0 0.54272-0.70144 0.9856-1.5616 0.9856-0.8576 0-1.99936 1.152-2.5344 2.56-0.53504 1.408-1.68704 2.56-2.56 2.56-0.87296 0-2.02496 1.152-2.56 2.56-0.53504 1.408-1.60256 2.56-2.37056 2.56-0.768 0-1.92256 1.152-2.56256 2.56-0.64256 1.408-1.8688 2.56-2.72384 2.56-0.8576 0-1.55904 0.45824-1.55904 1.01632 0 0.56064-4.8384 5.80864-10.752 11.66592-5.9136 5.85472-10.752 11.10528-10.752 11.66336 0 0.55808-0.95488 1.26464-2.1248 1.57184-1.16736 0.30464-2.36288 1.46688-2.65472 2.58304-0.29184 1.11616-1.40544 2.26048-2.47808 2.53952-1.07264 0.27904-2.20928 1.19296-2.52928 2.02496-0.32 0.83456-7.34976 8.41216-15.62112 16.83968-14.4256 14.69696-49.1264 50.8416-54.464 56.72704-4.22656 4.66176-4.96384 5.44256-6.35136 6.72768-0.7296 0.67584-1.8816 1.82784-2.56 2.56-0.67584 0.7296-1.95328 1.9328-2.83904 2.67008-0.8832 0.73728-1.3696 1.72544-1.08032 2.19392 0.29184 0.47104-0.5888 1.13408-1.95584 1.47712-1.36704 0.34304-2.76992 1.52064-3.11808 2.61632-0.34816 1.09824-1.50784 2.27072-2.57536 2.6112-1.06752 0.34048-2.21952 1.49248-2.56 2.56-0.34048 1.06752-1.49248 2.21952-2.56 2.56-1.06752 0.34048-2.21952 1.49248-2.56 2.56-0.34048 1.06752-1.49248 2.21952-2.56 2.56-1.06752 0.34048-2.21952 1.49248-2.56 2.56-0.34048 1.06752-1.49248 2.21952-2.56 2.56-1.06752 0.34048-2.21952 1.49248-2.56 2.56-0.34048 1.06752-1.51552 2.2272-2.6112 2.57536-1.09824 0.35072-1.9968 1.024-1.9968 1.50016 0 0.47872-11.7504 12.70272-26.112 27.16672-14.3616 14.464-26.112 26.71616-26.112 27.22304 0 0.50944-0.70144 0.92672-1.5616 0.92672-0.8576 0-1.99936 1.152-2.5344 2.56-0.53504 1.408-1.68704 2.56-2.56 2.56-0.87296 0-2.02496 1.152-2.56 2.56-0.53504 1.408-1.68704 2.56-2.56 2.56-0.87296 0-2.02496 1.152-2.56 2.56-0.53504 1.408-1.64608 2.56-2.46528 2.56-0.82176 0-1.79456 0.95232-2.1632 2.11456-1.27744 4.0192-8.01024 4.66944-9.00352 0.86784-0.27904-1.07264-1.20064-2.2144-2.04544-2.53696-0.8448-0.32512-11.87584-10.81088-24.512-23.30112a5993.8176 5993.8176 0 0 0-74.83904-72.5376 1269.69344 1269.69344 0 0 1-17.01888-16.47872c-3.82208-3.8016-7.41632-6.912-7.9872-6.912-0.57088 0-1.28768-0.95488-1.59488-2.1248-0.30464-1.16736-1.46688-2.36288-2.58304-2.65472-1.11616-0.29184-2.26816-1.44384-2.56-2.56-0.29184-1.11616-1.48736-2.2784-2.65472-2.58304-1.16992-0.3072-2.1248-1.2032-2.1248-1.99424 0-0.79104-1.2672-2.00448-2.816-2.69568-1.5488-0.69376-3.58144-2.18112-4.5184-3.30752-3.53024-4.2496-33.48992-3.36128-35.50208 1.05472-0.64512 1.41824-1.72032 2.26304-2.49856 1.96608-1.3824-0.53248-8.93696 6.24128-8.93696 8.01024 0 0.52992-1.09824 1.82528-2.43968 2.88-1.84064 1.44896-2.45248 2.9568-2.496 6.14144-0.03328 2.44736-0.78336 5.02272-1.7792 6.12352-2.84416 3.14368-3.15392 10.55744-0.57856 13.83168 1.34912 1.71776 2.17344 4.23936 2.17344 6.656 0 4.9536 1.57952 9.14432 3.44832 9.14432 0.79616 0 1.73056 1.12128 2.07616 2.49088 0.34304 1.37216 1.52064 2.7776 2.61632 3.12576 1.09824 0.34816 2.27072 1.50784 2.6112 2.57536 0.34048 1.06752 1.49248 2.21952 2.56 2.56 1.06752 0.34048 2.21952 1.49248 2.56 2.56 0.34048 1.06752 1.49248 2.21952 2.56 2.56 1.06752 0.34048 2.21952 1.49248 2.56 2.56 0.34048 1.06752 1.49248 2.21952 2.56 2.56 1.06752 0.34048 2.2272 1.51552 2.57536 2.6112 0.35072 1.09824 1.04704 1.9968 1.5488 1.9968 0.50432 0 9.25952 8.2944 19.456 18.432 10.19648 10.1376 18.9696 18.432 19.4944 18.432 0.52736 0 0.95744 0.70144 0.95744 1.55904 0 0.85504 1.152 2.08128 2.56 2.72384 1.408 0.64 2.56 1.792 2.56 2.56 0 0.76544 1.152 1.91744 2.56 2.56 1.408 0.64 2.56 1.792 2.56 2.56 0 0.76544 1.152 1.91744 2.56 2.56 1.408 0.64 2.56 1.79456 2.56 2.56256 0 0.768 1.152 1.83552 2.56 2.37056 1.408 0.53504 2.56 1.6896 2.56 2.56768 0 0.87552 0.78336 1.8944 1.7408 2.26048 0.96 0.36864 7.35744 6.34368 14.21824 13.28128 6.8608 6.93504 12.93568 12.61056 13.49888 12.61056 0.5632 0 1.27232 0.95488 1.57952 2.1248 0.30464 1.16736 1.46688 2.36288 2.58304 2.65472 1.11616 0.29184 2.26816 1.44384 2.56 2.56 0.29184 1.11616 1.43104 2.26304 2.53184 2.55232 1.09824 0.28672 2.50624 1.63584 3.12576 2.9952 0.61952 1.35936 1.7536 2.47296 2.51904 2.47296 0.768 0 1.92 1.152 2.56 2.56 0.64256 1.408 1.79456 2.56 2.56 2.56 0.768 0 1.92 1.152 2.56 2.56 0.64256 1.408 1.60768 2.56 2.14528 2.56 0.5376 0 7.94368 6.7968 16.45568 15.104 19.2512 18.78528 22.74048 21.76 25.51808 21.76 1.216 0 2.46784 0.66816 2.78272 1.48736 1.62048 4.224 25.792 4.85376 29.10976 0.7552 0.9984-1.23392 2.57792-2.24256 3.50976-2.24256 3.90144 0 26.15296-21.25824 58.56-55.936a2367.936 2367.936 0 0 1 21.25568-22.39232c5.96992-6.19008 11.10784-12.0576 11.4176-13.03552 0.31232-0.97792 0.8832-1.73312 1.26976-1.67936 2.14784 0.3072 3.1104-0.40704 3.69664-2.74176 0.36096-1.43104 1.09824-2.32704 1.64352-1.99168 0.54528 0.33792 1.50784-0.52736 2.14272-1.92 0.63488-1.39008 2.05312-2.7648 3.15136-3.05152 1.1008-0.28928 2.24-1.43616 2.53184-2.55232 0.29184-1.11616 1.44384-2.26816 2.56-2.56 1.11616-0.29184 2.26816-1.44384 2.56-2.56 0.29184-1.11616 1.44384-2.26816 2.56-2.56 1.11616-0.29184 2.26816-1.44384 2.56-2.56 0.29184-1.11616 1.44384-2.26816 2.56-2.56 1.11616-0.29184 2.26816-1.44384 2.56-2.56 0.29184-1.11616 1.44384-2.26816 2.56-2.56 1.11616-0.29184 2.26816-1.44384 2.56-2.56 0.29184-1.11616 1.44384-2.26816 2.56-2.56 1.11616-0.29184 2.26816-1.44384 2.56-2.56 0.29184-1.11616 1.44384-2.26816 2.56-2.56 1.11616-0.29184 2.26304-1.43104 2.55232-2.53184 0.28672-1.09824 1.6384-2.50624 3.00032-3.12832 1.36448-0.62208 2.42432-1.48224 2.35264-1.91744-0.2944-1.81504 0.16128-3.64032 0.76288-3.04128 0.94208 0.94208 4.6336-1.26208 3.9552-2.36032-0.31488-0.512 0.83968-1.65888 2.56512-2.55232 1.72544-0.89344 2.87744-2.04544 2.56-2.56-0.31744-0.51456 0.83456-1.66656 2.56-2.56 1.72544-0.89344 2.87744-2.04544 2.56-2.56-0.31744-0.51456 0.83456-1.66656 2.56-2.56 1.72544-0.89344 2.87744-2.04544 2.56-2.56-0.31744-0.51456 0.8192-1.65888 2.52672-2.54208s3.10528-2.21184 3.10528-2.95168c0-0.73984 1.18784-1.88672 2.63936-2.54976 1.45408-0.66048 2.44992-1.77152 2.21696-2.46784-0.23552-0.69632 0.9216-1.83552 2.56768-2.53184 1.64608-0.69888 2.79808-1.85088 2.56-2.56-0.23808-0.71168 0.92416-1.86624 2.58048-2.57024 2.0224-0.85504 2.82112-1.78432 2.42688-2.816-0.32512-0.8448-0.16128-1.53856 0.36096-1.53856 1.30048 0 25.60768-24.07424 25.60768-25.35936 0-0.5632 0.95488-1.27488 2.1248-1.58208 1.16736-0.30464 2.36288-1.46688 2.65472-2.58304 0.29184-1.11616 1.44384-2.26816 2.56-2.56 1.11616-0.29184 2.2784-1.48736 2.58304-2.65472 0.3072-1.16992 1.2032-2.1248 1.99424-2.1248 0.79104 0 1.96352-1.152 2.60608-2.56 0.64-1.408 1.792-2.56 2.56-2.56 0.76544 0 1.91744-1.152 2.56-2.56 0.64-1.408 1.7664-2.56 2.50112-2.56 0.73472 0 1.77152-0.8064 2.30144-1.792 0.53248-0.9856 7.5776-8.53504 15.6544-16.77312 27.3536-27.90912 44.37504-46.12352 45.7984-49.0112 0.77824-1.58208 2.43968-3.3408 3.68896-3.91168 1.71264-0.7808 2.43456-2.24768 2.944-5.98784 0.37376-2.7264 1.67936-7.37792 2.90304-10.33472l2.22464-5.38112-2.07104-2.81088c-1.8688-2.5344-3.5712-9.12896-3.56096-13.7984 0-0.9728-1.3568-2.73664-3.01568-3.91936-1.66144-1.18016-2.752-2.58304-2.42176-3.11296 0.32768-0.52992-0.82688-1.56416-2.56512-2.29376-1.7408-0.73216-2.88512-1.60768-2.54464-1.94816 0.89344-0.89344-4.40064-4.14464-5.57312-3.42272-0.54016 0.33536-2.44736-0.62464-4.23936-2.13248-3.42784-2.88512-18.74688-4.34432-24.24832-2.30912" p-id="20001"></path><path d="M926.20288 547.84c0 207.5392 0.11776 292.4416 0.26112 188.672 0.14336-103.7696 0.14336-273.5744 0-377.344-0.14336-103.7696-0.26112-18.8672-0.26112 188.672m-195.31008-182.57152c1.27232 0.24576 3.11552 0.23552 4.096-0.02048 0.97792-0.256-0.064-0.45824-2.3168-0.44544-2.2528 0.01024-3.05408 0.22016-1.7792 0.46592" p-id="20002"></path></svg>