<?xml version="1.0" standalone="no"?><!DOCTYPE svg PUBLIC "-//W3C//DTD SVG 1.1//EN" "http://www.w3.org/Graphics/SVG/1.1/DTD/svg11.dtd"><svg t="1576692388624" class="icon" viewBox="0 0 1024 1024" version="1.1" xmlns="http://www.w3.org/2000/svg" p-id="48481" xmlns:xlink="http://www.w3.org/1999/xlink" width="200" height="200"><defs><style type="text/css"></style></defs><path d="M895.7 513.5H547.9c-13.8 0-27.2 15.7-27.2 31.8 0 23.1 13.3 38.7 33.1 38.7h347.8c19.8 0 33.1-15.5 33.1-38.7l-0.4-1.9c-8-18.8-22.4-29.9-38.6-29.9M906.1 85.3H117.9c-19.5 0-32.6 11.8-32.6 29.3v240c0 17.5 13.1 29.3 32.6 29.3h788.2c19.5 0 32.6-11.8 32.6-29.3v-240c0-17.5-13.1-29.3-32.6-29.3z m-32.6 240.1H144.7V144h728.8v181.4zM907.9 853.3H585.4c-18.4 0-30.7 17.1-30.7 42.7 0 25.5 12.3 42.7 30.7 42.7h322.5c18.4 0 30.7-17.1 30.7-42.7 0.1-25.5-12.3-42.7-30.7-42.7M907.9 682.7H585.4c-18.4 0-30.7 18.8-30.7 46.8l0.4 2.3c5.7 17.4 17.7 36.2 30.4 36.2H908c18.4 0 30.7-18.8 30.7-46.8 0-18.6-11.8-38.5-30.8-38.5M426.3 537.3c-5.8-12.2-18-25.3-31-25.3H116.7c-19.4 0-31.3 14-31.3 26.9v367c0 19.6 12.6 32.7 31.3 32.7h278.7c18.7 0 31.3-13.2 31.3-32.7v-367l-0.4-1.6zM364 879H142.4V571.7H364V879z" p-id="48482"></path></svg>